<svg width="312" height="312" viewBox="0 0 312 312" fill="none" xmlns="http://www.w3.org/2000/svg">
<g filter="url(#filter0_d_185_234)">
<g clip-path="url(#clip0_185_234)">
<rect x="2" width="300" height="300" fill="white"/>
<mask id="path-3-outside-1_185_234" maskUnits="userSpaceOnUse" x="20" y="241" width="282" height="59" fill="black">
<rect fill="white" x="20" y="241" width="282" height="59"/>
<path d="M20 242H302V300H20V242Z"/>
</mask>
<path d="M20 242H302V300H20V242Z" fill="black"/>
<path d="M20 242V243H302V242V241H20V242Z" fill="black" mask="url(#path-3-outside-1_185_234)"/>
<path d="M91.3172 261.832H91.0652V283H88.3292V257.872H92.6132L101.181 279.04H101.433V257.872H104.169V283H99.8852L91.3172 261.832ZM118.159 283.432C116.815 283.432 115.603 283.204 114.523 282.748C113.467 282.292 112.555 281.644 111.787 280.804C111.043 279.94 110.467 278.92 110.059 277.744C109.651 276.544 109.447 275.212 109.447 273.748C109.447 272.26 109.651 270.916 110.059 269.716C110.491 268.516 111.079 267.496 111.823 266.656C112.567 265.792 113.455 265.132 114.487 264.676C115.543 264.22 116.707 263.992 117.979 263.992C119.227 263.992 120.355 264.22 121.363 264.676C122.395 265.132 123.271 265.768 123.991 266.584C124.711 267.376 125.263 268.324 125.647 269.428C126.031 270.532 126.223 271.744 126.223 273.064V274.432H112.471V275.296C112.471 276.112 112.603 276.868 112.867 277.564C113.131 278.26 113.503 278.86 113.983 279.364C114.487 279.868 115.087 280.264 115.783 280.552C116.503 280.816 117.295 280.948 118.159 280.948C119.407 280.948 120.487 280.66 121.399 280.084C122.311 279.508 123.007 278.716 123.487 277.708L125.611 279.148C125.059 280.396 124.135 281.428 122.839 282.244C121.567 283.036 120.007 283.432 118.159 283.432ZM117.979 266.368C117.187 266.368 116.455 266.512 115.783 266.8C115.111 267.088 114.523 267.484 114.019 267.988C113.539 268.492 113.155 269.092 112.867 269.788C112.603 270.46 112.471 271.204 112.471 272.02V272.272H123.127V271.876C123.127 271.06 122.995 270.316 122.731 269.644C122.491 268.972 122.143 268.396 121.687 267.916C121.255 267.412 120.715 267.028 120.067 266.764C119.443 266.5 118.747 266.368 117.979 266.368ZM130.817 283L137.729 273.568L130.997 264.424H134.453L137.261 268.348L139.493 271.444H139.637L141.797 268.348L144.569 264.424H147.881L141.077 273.532L148.061 283H144.605L141.473 278.644L139.349 275.692H139.205L137.153 278.644L134.129 283H130.817ZM161.907 283C160.491 283 159.447 282.604 158.775 281.812C158.127 281.02 157.803 280 157.803 278.752V266.872H151.611V264.424H156.219C156.843 264.424 157.275 264.304 157.515 264.064C157.779 263.8 157.911 263.356 157.911 262.732V257.872H160.683V264.424H169.143V266.872H160.683V280.552H169.143V283H161.907ZM182.593 283.324C181.609 283.324 180.913 283.12 180.505 282.712C180.121 282.304 179.929 281.788 179.929 281.164V280.516C179.929 279.892 180.121 279.376 180.505 278.968C180.913 278.56 181.609 278.356 182.593 278.356C183.577 278.356 184.261 278.56 184.645 278.968C185.053 279.376 185.257 279.892 185.257 280.516V281.164C185.257 281.788 185.053 282.304 184.645 282.712C184.261 283.12 183.577 283.324 182.593 283.324ZM197.051 287.752H206.051V266.872H196.727V264.424H208.931V285.952C208.931 287.2 208.595 288.22 207.923 289.012C207.275 289.804 206.243 290.2 204.827 290.2H197.051V287.752ZM207.491 260.32C206.651 260.32 206.063 260.152 205.727 259.816C205.391 259.456 205.223 259.012 205.223 258.484V257.908C205.223 257.38 205.391 256.948 205.727 256.612C206.063 256.252 206.651 256.072 207.491 256.072C208.331 256.072 208.919 256.252 209.255 256.612C209.591 256.948 209.759 257.38 209.759 257.908V258.484C209.759 259.012 209.591 259.456 209.255 259.816C208.919 260.152 208.331 260.32 207.491 260.32ZM225.981 283.432C224.037 283.432 222.357 283.108 220.941 282.46C219.549 281.788 218.361 280.9 217.377 279.796L219.321 278.104C220.209 279.04 221.181 279.76 222.237 280.264C223.293 280.768 224.565 281.02 226.053 281.02C227.493 281.02 228.669 280.768 229.581 280.264C230.517 279.736 230.985 278.92 230.985 277.816C230.985 277.336 230.889 276.94 230.697 276.628C230.529 276.292 230.289 276.028 229.977 275.836C229.665 275.644 229.317 275.5 228.933 275.404C228.549 275.284 228.141 275.188 227.709 275.116L224.793 274.684C224.145 274.588 223.437 274.456 222.669 274.288C221.925 274.12 221.241 273.856 220.617 273.496C219.993 273.112 219.465 272.608 219.033 271.984C218.625 271.36 218.421 270.544 218.421 269.536C218.421 268.6 218.601 267.796 218.961 267.124C219.345 266.428 219.873 265.852 220.545 265.396C221.217 264.916 222.009 264.568 222.921 264.352C223.833 264.112 224.829 263.992 225.909 263.992C227.589 263.992 229.041 264.256 230.265 264.784C231.513 265.312 232.581 266.044 233.469 266.98L231.597 268.744C231.381 268.48 231.105 268.216 230.769 267.952C230.457 267.664 230.061 267.412 229.581 267.196C229.125 266.956 228.585 266.764 227.961 266.62C227.337 266.476 226.617 266.404 225.801 266.404C224.337 266.404 223.209 266.656 222.417 267.16C221.649 267.664 221.265 268.396 221.265 269.356C221.265 269.836 221.349 270.244 221.517 270.58C221.709 270.892 221.961 271.144 222.273 271.336C222.585 271.528 222.933 271.684 223.317 271.804C223.725 271.9 224.133 271.984 224.541 272.056L227.457 272.488C228.129 272.584 228.837 272.716 229.581 272.884C230.325 273.052 231.009 273.328 231.633 273.712C232.257 274.072 232.773 274.564 233.181 275.188C233.613 275.812 233.829 276.628 233.829 277.636C233.829 279.484 233.109 280.912 231.669 281.92C230.253 282.928 228.357 283.432 225.981 283.432Z" fill="white"/>
<rect x="2" y="242" width="18" height="58" fill="white"/>
<rect x="1.5" y="-0.5" width="19" height="242" fill="#7C7C7C" stroke="black"/>
<rect x="216" y="-28.8508" width="76.5785" height="158.444" transform="rotate(-45 216 -28.8508)" fill="#7C7C7C"/>
</g>
<rect x="3" y="1" width="298" height="298" stroke="black" stroke-width="2"/>
</g>
<g clip-path="url(#clip1_185_234)">
<mask id="mask0_185_234" style="mask-type:alpha" maskUnits="userSpaceOnUse" x="71" y="30" width="180" height="180">
<path d="M161 210C210.706 210 251 169.706 251 120C251 70.2944 210.706 30 161 30C111.294 30 71 70.2944 71 120C71 169.706 111.294 210 161 210Z" fill="black"/>
</mask>
<g mask="url(#mask0_185_234)">
<path d="M161 210C210.706 210 251 169.706 251 120C251 70.2944 210.706 30 161 30C111.294 30 71 70.2944 71 120C71 169.706 111.294 210 161 210Z" fill="black"/>
<path d="M220.508 187.52L140.142 84H125V155.97H137.114V99.3836L210.999 194.845C214.333 192.614 217.509 190.165 220.508 187.52Z" fill="url(#paint0_linear_185_234)"/>
<path d="M198 84H186V156H198V84Z" fill="url(#paint1_linear_185_234)"/>
</g>
</g>
<defs>
<filter id="filter0_d_185_234" x="0" y="0" width="312" height="312" filterUnits="userSpaceOnUse" color-interpolation-filters="sRGB">
<feFlood flood-opacity="0" result="BackgroundImageFix"/>
<feColorMatrix in="SourceAlpha" type="matrix" values="0 0 0 0 0 0 0 0 0 0 0 0 0 0 0 0 0 0 127 0" result="hardAlpha"/>
<feOffset dx="4" dy="6"/>
<feGaussianBlur stdDeviation="3"/>
<feComposite in2="hardAlpha" operator="out"/>
<feColorMatrix type="matrix" values="0 0 0 0 0 0 0 0 0 0 0 0 0 0 0 0 0 0 0.25 0"/>
<feBlend mode="normal" in2="BackgroundImageFix" result="effect1_dropShadow_185_234"/>
<feBlend mode="normal" in="SourceGraphic" in2="effect1_dropShadow_185_234" result="shape"/>
</filter>
<linearGradient id="paint0_linear_185_234" x1="180" y1="146.5" x2="215.5" y2="190.5" gradientUnits="userSpaceOnUse">
<stop stop-color="white"/>
<stop offset="1" stop-color="white" stop-opacity="0"/>
</linearGradient>
<linearGradient id="paint1_linear_185_234" x1="192" y1="84" x2="191.799" y2="136.875" gradientUnits="userSpaceOnUse">
<stop stop-color="white"/>
<stop offset="1" stop-color="white" stop-opacity="0"/>
</linearGradient>
<clipPath id="clip0_185_234">
<rect x="2" width="300" height="300" fill="white"/>
</clipPath>
<clipPath id="clip1_185_234">
<rect width="180" height="180" fill="white" transform="translate(71 30)"/>
</clipPath>
</defs>
</svg>
