<svg width="312" height="312" viewBox="0 0 312 312" fill="none" xmlns="http://www.w3.org/2000/svg">
<g filter="url(#filter0_d_185_207)">
<g clip-path="url(#clip0_185_207)">
<rect x="2" width="300" height="300" fill="white"/>
<mask id="path-3-outside-1_185_207" maskUnits="userSpaceOnUse" x="20" y="241" width="282" height="59" fill="black">
<rect fill="white" x="20" y="241" width="282" height="59"/>
<path d="M20 242H302V300H20V242Z"/>
</mask>
<path d="M20 242H302V300H20V242Z" fill="#3178C6"/>
<path d="M20 242V243H302V242V241H20V242Z" fill="#3178C6" mask="url(#path-3-outside-1_185_207)"/>
<path d="M54.5893 260.5V283H51.5653V260.5H43.1773V257.872H62.9773V260.5H54.5893ZM80.6753 264.424H83.5553L74.3393 287.068C74.1233 287.596 73.8833 288.052 73.6193 288.436C73.3553 288.844 73.0433 289.168 72.6833 289.408C72.3233 289.672 71.8913 289.864 71.3873 289.984C70.8833 290.128 70.2833 290.2 69.5873 290.2H66.8513V287.752H71.1713L73.2593 282.64L65.7713 264.424H68.7233L71.8553 272.2L74.6273 279.256H74.7713L77.5433 272.2L80.6753 264.424ZM88.8692 264.424H91.7492V267.448H91.8932C93.0932 265.144 95.0012 263.992 97.6172 263.992C99.8972 263.992 101.673 264.844 102.945 266.548C104.241 268.252 104.889 270.64 104.889 273.712C104.889 276.784 104.241 279.172 102.945 280.876C101.673 282.58 99.8972 283.432 97.6172 283.432C95.0012 283.432 93.0932 282.28 91.8932 279.976H91.7492V290.2H88.8692V264.424ZM96.5012 280.876C98.1812 280.876 99.4772 280.372 100.389 279.364C101.325 278.332 101.793 276.976 101.793 275.296V272.128C101.793 270.448 101.325 269.104 100.389 268.096C99.4772 267.064 98.1812 266.548 96.5012 266.548C95.8532 266.548 95.2412 266.632 94.6652 266.8C94.0892 266.968 93.5852 267.22 93.1532 267.556C92.7212 267.868 92.3732 268.264 92.1092 268.744C91.8692 269.2 91.7492 269.74 91.7492 270.364V277.06C91.7492 277.684 91.8692 278.236 92.1092 278.716C92.3732 279.172 92.7212 279.568 93.1532 279.904C93.5852 280.216 94.0892 280.456 94.6652 280.624C95.2412 280.792 95.8532 280.876 96.5012 280.876ZM118.159 283.432C116.815 283.432 115.603 283.204 114.523 282.748C113.467 282.292 112.555 281.644 111.787 280.804C111.043 279.94 110.467 278.92 110.059 277.744C109.651 276.544 109.447 275.212 109.447 273.748C109.447 272.26 109.651 270.916 110.059 269.716C110.491 268.516 111.079 267.496 111.823 266.656C112.567 265.792 113.455 265.132 114.487 264.676C115.543 264.22 116.707 263.992 117.979 263.992C119.227 263.992 120.355 264.22 121.363 264.676C122.395 265.132 123.271 265.768 123.991 266.584C124.711 267.376 125.263 268.324 125.647 269.428C126.031 270.532 126.223 271.744 126.223 273.064V274.432H112.471V275.296C112.471 276.112 112.603 276.868 112.867 277.564C113.131 278.26 113.503 278.86 113.983 279.364C114.487 279.868 115.087 280.264 115.783 280.552C116.503 280.816 117.295 280.948 118.159 280.948C119.407 280.948 120.487 280.66 121.399 280.084C122.311 279.508 123.007 278.716 123.487 277.708L125.611 279.148C125.059 280.396 124.135 281.428 122.839 282.244C121.567 283.036 120.007 283.432 118.159 283.432ZM117.979 266.368C117.187 266.368 116.455 266.512 115.783 266.8C115.111 267.088 114.523 267.484 114.019 267.988C113.539 268.492 113.155 269.092 112.867 269.788C112.603 270.46 112.471 271.204 112.471 272.02V272.272H123.127V271.876C123.127 271.06 122.995 270.316 122.731 269.644C122.491 268.972 122.143 268.396 121.687 267.916C121.255 267.412 120.715 267.028 120.067 266.764C119.443 266.5 118.747 266.368 117.979 266.368ZM160.935 283.432C158.679 283.432 156.831 283.024 155.391 282.208C153.951 281.368 152.763 280.3 151.827 279.004L154.023 277.204C155.007 278.428 156.039 279.34 157.119 279.94C158.223 280.54 159.531 280.84 161.043 280.84C162.867 280.84 164.259 280.42 165.219 279.58C166.179 278.74 166.659 277.564 166.659 276.052C166.659 274.828 166.311 273.88 165.615 273.208C164.919 272.512 163.707 272.02 161.979 271.732L159.171 271.264C157.947 271.048 156.915 270.724 156.075 270.292C155.259 269.86 154.599 269.344 154.095 268.744C153.591 268.12 153.231 267.448 153.015 266.728C152.799 265.984 152.691 265.216 152.691 264.424C152.691 262.12 153.447 260.38 154.959 259.204C156.471 258.028 158.511 257.44 161.079 257.44C163.095 257.44 164.787 257.776 166.155 258.448C167.547 259.12 168.663 260.068 169.503 261.292L167.379 263.128C166.683 262.216 165.843 261.472 164.859 260.896C163.875 260.32 162.603 260.032 161.043 260.032C159.339 260.032 158.031 260.392 157.119 261.112C156.207 261.832 155.751 262.912 155.751 264.352C155.751 265.48 156.087 266.404 156.759 267.124C157.455 267.82 158.691 268.324 160.467 268.636L163.167 269.104C164.391 269.32 165.423 269.644 166.263 270.076C167.103 270.508 167.775 271.024 168.279 271.624C168.807 272.224 169.179 272.896 169.395 273.64C169.611 274.384 169.719 275.164 169.719 275.98C169.719 278.308 168.951 280.132 167.415 281.452C165.903 282.772 163.743 283.432 160.935 283.432ZM183.241 283.432C181.897 283.432 180.697 283.204 179.641 282.748C178.609 282.268 177.733 281.608 177.013 280.768C176.293 279.928 175.741 278.908 175.357 277.708C174.997 276.508 174.817 275.176 174.817 273.712C174.817 272.248 175.009 270.916 175.393 269.716C175.777 268.516 176.329 267.496 177.049 266.656C177.769 265.792 178.645 265.132 179.677 264.676C180.709 264.22 181.885 263.992 183.205 263.992C185.005 263.992 186.469 264.388 187.597 265.18C188.725 265.972 189.553 267.004 190.081 268.276L187.777 269.5C187.441 268.54 186.877 267.796 186.085 267.268C185.317 266.74 184.357 266.476 183.205 266.476C182.365 266.476 181.609 266.62 180.937 266.908C180.289 267.172 179.737 267.556 179.281 268.06C178.825 268.564 178.477 269.164 178.237 269.86C178.021 270.556 177.913 271.312 177.913 272.128V275.296C177.913 276.112 178.021 276.868 178.237 277.564C178.477 278.26 178.825 278.86 179.281 279.364C179.737 279.868 180.301 280.264 180.973 280.552C181.645 280.816 182.413 280.948 183.277 280.948C184.525 280.948 185.557 280.66 186.373 280.084C187.189 279.508 187.837 278.716 188.317 277.708L190.369 279.112C189.817 280.36 188.953 281.392 187.777 282.208C186.625 283.024 185.113 283.432 183.241 283.432ZM196.151 280.552H201.587V266.872H196.151V264.424H204.467V269.104H204.647C205.031 267.64 205.751 266.5 206.807 265.684C207.887 264.844 209.255 264.424 210.911 264.424H213.503V267.304H210.011C208.355 267.304 207.011 267.784 205.979 268.744C204.971 269.704 204.467 270.964 204.467 272.524V280.552H211.667V283H196.151V280.552ZM226.917 260.32C226.077 260.32 225.489 260.152 225.153 259.816C224.817 259.456 224.649 259.012 224.649 258.484V257.908C224.649 257.38 224.817 256.948 225.153 256.612C225.489 256.252 226.077 256.072 226.917 256.072C227.757 256.072 228.345 256.252 228.681 256.612C229.017 256.948 229.185 257.38 229.185 257.908V258.484C229.185 259.012 229.017 259.456 228.681 259.816C228.345 260.152 227.757 260.32 226.917 260.32ZM218.781 280.552H225.477V266.872H218.781V264.424H228.357V280.552H234.621V283H218.781V280.552ZM239.971 264.424H242.851V267.448H242.995C244.195 265.144 246.103 263.992 248.719 263.992C250.999 263.992 252.775 264.844 254.047 266.548C255.343 268.252 255.991 270.64 255.991 273.712C255.991 276.784 255.343 279.172 254.047 280.876C252.775 282.58 250.999 283.432 248.719 283.432C246.103 283.432 244.195 282.28 242.995 279.976H242.851V290.2H239.971V264.424ZM247.603 280.876C249.283 280.876 250.579 280.372 251.491 279.364C252.427 278.332 252.895 276.976 252.895 275.296V272.128C252.895 270.448 252.427 269.104 251.491 268.096C250.579 267.064 249.283 266.548 247.603 266.548C246.955 266.548 246.343 266.632 245.767 266.8C245.191 266.968 244.687 267.22 244.255 267.556C243.823 267.868 243.475 268.264 243.211 268.744C242.971 269.2 242.851 269.74 242.851 270.364V277.06C242.851 277.684 242.971 278.236 243.211 278.716C243.475 279.172 243.823 279.568 244.255 279.904C244.687 280.216 245.191 280.456 245.767 280.624C246.343 280.792 246.955 280.876 247.603 280.876ZM269.837 283C268.421 283 267.377 282.604 266.705 281.812C266.057 281.02 265.733 280 265.733 278.752V266.872H259.541V264.424H264.149C264.773 264.424 265.205 264.304 265.445 264.064C265.709 263.8 265.841 263.356 265.841 262.732V257.872H268.613V264.424H277.073V266.872H268.613V280.552H277.073V283H269.837Z" fill="white"/>
<rect x="2" y="242" width="18" height="58" fill="white"/>
<rect x="1.5" y="-0.5" width="19" height="242" fill="#3178C6" stroke="#3178C6"/>
<rect x="216" y="-28.8508" width="76.5785" height="158.444" transform="rotate(-45 216 -28.8508)" fill="#3178C6"/>
</g>
<rect x="3" y="1" width="298" height="298" stroke="#3178C6" stroke-width="2"/>
</g>
<g clip-path="url(#clip1_185_207)">
<path d="M236.219 38H85.7812C81.4838 38 78 41.4838 78 45.7812V196.219C78 200.516 81.4838 204 85.7812 204H236.219C240.516 204 244 200.516 244 196.219V45.7812C244 41.4838 240.516 38 236.219 38Z" fill="#3178C6"/>
<path fill-rule="evenodd" clip-rule="evenodd" d="M174.309 166.998V185.188C177.256 186.702 180.741 187.84 184.765 188.597C188.789 189.356 193.03 189.734 197.488 189.734C201.833 189.734 205.96 189.318 209.87 188.484C213.782 187.65 217.209 186.277 220.157 184.363C223.103 182.449 225.437 179.948 227.156 176.859C228.875 173.771 229.734 169.953 229.734 165.406C229.734 162.109 229.243 159.22 228.261 156.737C227.278 154.255 225.862 152.048 224.01 150.115C222.159 148.183 219.939 146.449 217.352 144.914C214.763 143.38 211.845 141.93 208.595 140.566C206.215 139.581 204.081 138.624 202.192 137.695C200.302 136.767 198.697 135.82 197.374 134.853C196.052 133.887 195.032 132.864 194.314 131.784C193.596 130.704 193.237 129.482 193.237 128.118C193.237 126.867 193.558 125.74 194.201 124.735C194.843 123.731 195.75 122.869 196.921 122.149C198.092 121.429 199.528 120.87 201.228 120.472C202.928 120.074 204.817 119.875 206.895 119.875C208.407 119.875 210.002 119.989 211.684 120.216C213.365 120.444 215.056 120.794 216.757 121.268C218.457 121.742 220.109 122.339 221.716 123.059C223.321 123.779 224.804 124.612 226.164 125.56V108.564C223.406 107.503 220.393 106.716 217.125 106.205C213.857 105.693 210.107 105.438 205.875 105.438C201.568 105.438 197.488 105.902 193.634 106.83C189.78 107.759 186.389 109.208 183.461 111.179C180.533 113.149 178.219 115.66 176.519 118.71C174.819 121.761 173.969 125.408 173.969 129.652C173.969 135.071 175.527 139.694 178.644 143.522C181.761 147.349 186.493 150.589 192.841 153.242C195.334 154.265 197.658 155.269 199.811 156.254C201.965 157.24 203.826 158.263 205.394 159.324C206.962 160.385 208.198 161.541 209.105 162.791C210.013 164.042 210.465 165.463 210.465 167.054C210.465 168.23 210.183 169.319 209.616 170.323C209.049 171.327 208.189 172.198 207.037 172.937C205.885 173.676 204.449 174.255 202.73 174.671C201.011 175.087 198.999 175.296 196.694 175.296C192.765 175.296 188.874 174.605 185.02 173.221C181.166 171.839 177.596 169.764 174.309 166.998ZM143.755 121.719H167.484V106.734H101.344V121.719H124.957V188.438H143.755V121.719Z" fill="white"/>
</g>
<defs>
<filter id="filter0_d_185_207" x="0" y="0" width="312" height="312" filterUnits="userSpaceOnUse" color-interpolation-filters="sRGB">
<feFlood flood-opacity="0" result="BackgroundImageFix"/>
<feColorMatrix in="SourceAlpha" type="matrix" values="0 0 0 0 0 0 0 0 0 0 0 0 0 0 0 0 0 0 127 0" result="hardAlpha"/>
<feOffset dx="4" dy="6"/>
<feGaussianBlur stdDeviation="3"/>
<feComposite in2="hardAlpha" operator="out"/>
<feColorMatrix type="matrix" values="0 0 0 0 0 0 0 0 0 0 0 0 0 0 0 0 0 0 0.25 0"/>
<feBlend mode="normal" in2="BackgroundImageFix" result="effect1_dropShadow_185_207"/>
<feBlend mode="normal" in="SourceGraphic" in2="effect1_dropShadow_185_207" result="shape"/>
</filter>
<clipPath id="clip0_185_207">
<rect x="2" width="300" height="300" fill="white"/>
</clipPath>
<clipPath id="clip1_185_207">
<rect width="166" height="166" fill="white" transform="translate(78 38)"/>
</clipPath>
</defs>
</svg>
