<svg width="312" height="312" viewBox="0 0 312 312" fill="none" xmlns="http://www.w3.org/2000/svg">
<g filter="url(#filter0_d_185_278)">
<g clip-path="url(#clip0_185_278)">
<rect x="2" width="300" height="300" fill="white"/>
<mask id="path-3-outside-1_185_278" maskUnits="userSpaceOnUse" x="20" y="241" width="282" height="59" fill="black">
<rect fill="white" x="20" y="241" width="282" height="59"/>
<path d="M20 242H302V300H20V242Z"/>
</mask>
<path d="M20 242H302V300H20V242Z" fill="#006FB1"/>
<path d="M20 242V243H302V242V241H20V242Z" fill="#006EB1" mask="url(#path-3-outside-1_185_278)"/>
<path d="M94.1972 283L86.7452 257.872H89.9492L93.5132 270.436L96.2132 279.94H96.3932L99.0932 270.436L102.657 257.872H105.753L98.3012 283H94.1972ZM117.763 283.432C115.507 283.432 113.659 283.024 112.219 282.208C110.779 281.368 109.591 280.3 108.655 279.004L110.851 277.204C111.835 278.428 112.867 279.34 113.947 279.94C115.051 280.54 116.359 280.84 117.871 280.84C119.695 280.84 121.087 280.42 122.047 279.58C123.007 278.74 123.487 277.564 123.487 276.052C123.487 274.828 123.139 273.88 122.443 273.208C121.747 272.512 120.535 272.02 118.807 271.732L115.999 271.264C114.775 271.048 113.743 270.724 112.903 270.292C112.087 269.86 111.427 269.344 110.923 268.744C110.419 268.12 110.059 267.448 109.843 266.728C109.627 265.984 109.519 265.216 109.519 264.424C109.519 262.12 110.275 260.38 111.787 259.204C113.299 258.028 115.339 257.44 117.907 257.44C119.923 257.44 121.615 257.776 122.983 258.448C124.375 259.12 125.491 260.068 126.331 261.292L124.207 263.128C123.511 262.216 122.671 261.472 121.687 260.896C120.703 260.32 119.431 260.032 117.871 260.032C116.167 260.032 114.859 260.392 113.947 261.112C113.035 261.832 112.579 262.912 112.579 264.352C112.579 265.48 112.915 266.404 113.587 267.124C114.283 267.82 115.519 268.324 117.295 268.636L119.995 269.104C121.219 269.32 122.251 269.644 123.091 270.076C123.931 270.508 124.603 271.024 125.107 271.624C125.635 272.224 126.007 272.896 126.223 273.64C126.439 274.384 126.547 275.164 126.547 275.98C126.547 278.308 125.779 280.132 124.243 281.452C122.731 282.772 120.571 283.432 117.763 283.432ZM161.835 283.432C158.763 283.432 156.471 282.316 154.959 280.084C153.471 277.852 152.727 274.636 152.727 270.436C152.727 266.236 153.471 263.02 154.959 260.788C156.471 258.556 158.763 257.44 161.835 257.44C162.987 257.44 163.983 257.596 164.823 257.908C165.663 258.22 166.383 258.64 166.983 259.168C167.583 259.696 168.087 260.296 168.495 260.968C168.903 261.616 169.263 262.276 169.575 262.948L166.983 264.136C166.767 263.584 166.515 263.068 166.227 262.588C165.939 262.084 165.591 261.652 165.183 261.292C164.799 260.908 164.331 260.608 163.779 260.392C163.251 260.176 162.603 260.068 161.835 260.068C159.843 260.068 158.355 260.824 157.371 262.336C156.411 263.848 155.931 265.864 155.931 268.384V272.488C155.931 275.008 156.411 277.024 157.371 278.536C158.355 280.048 159.843 280.804 161.835 280.804C162.603 280.804 163.251 280.696 163.779 280.48C164.331 280.264 164.799 279.976 165.183 279.616C165.591 279.232 165.939 278.8 166.227 278.32C166.515 277.816 166.767 277.288 166.983 276.736L169.575 277.924C169.263 278.62 168.903 279.292 168.495 279.94C168.087 280.588 167.583 281.176 166.983 281.704C166.383 282.232 165.663 282.652 164.823 282.964C163.983 283.276 162.987 283.432 161.835 283.432ZM182.593 283.432C181.297 283.432 180.121 283.204 179.065 282.748C178.033 282.292 177.145 281.644 176.401 280.804C175.681 279.94 175.129 278.92 174.745 277.744C174.361 276.544 174.169 275.2 174.169 273.712C174.169 272.248 174.361 270.916 174.745 269.716C175.129 268.516 175.681 267.496 176.401 266.656C177.145 265.792 178.033 265.132 179.065 264.676C180.121 264.22 181.297 263.992 182.593 263.992C183.889 263.992 185.053 264.22 186.085 264.676C187.141 265.132 188.029 265.792 188.749 266.656C189.493 267.496 190.057 268.516 190.441 269.716C190.825 270.916 191.017 272.248 191.017 273.712C191.017 275.2 190.825 276.544 190.441 277.744C190.057 278.92 189.493 279.94 188.749 280.804C188.029 281.644 187.141 282.292 186.085 282.748C185.053 283.204 183.889 283.432 182.593 283.432ZM182.593 280.948C184.201 280.948 185.497 280.468 186.481 279.508C187.465 278.548 187.957 277.06 187.957 275.044V272.38C187.957 270.364 187.465 268.876 186.481 267.916C185.497 266.956 184.201 266.476 182.593 266.476C180.985 266.476 179.689 266.956 178.705 267.916C177.721 268.876 177.229 270.364 177.229 272.38V275.044C177.229 277.06 177.721 278.548 178.705 279.508C179.689 280.468 180.985 280.948 182.593 280.948ZM208.679 279.976H208.535C207.335 282.28 205.427 283.432 202.811 283.432C200.531 283.432 198.743 282.58 197.447 280.876C196.175 279.172 195.539 276.784 195.539 273.712C195.539 270.64 196.175 268.252 197.447 266.548C198.743 264.844 200.531 263.992 202.811 263.992C205.427 263.992 207.335 265.144 208.535 267.448H208.679V256.36H211.559V283H208.679V279.976ZM203.927 280.876C204.575 280.876 205.187 280.792 205.763 280.624C206.339 280.456 206.843 280.216 207.275 279.904C207.707 279.568 208.043 279.172 208.283 278.716C208.547 278.236 208.679 277.684 208.679 277.06V270.364C208.679 269.74 208.547 269.2 208.283 268.744C208.043 268.264 207.707 267.868 207.275 267.556C206.843 267.22 206.339 266.968 205.763 266.8C205.187 266.632 204.575 266.548 203.927 266.548C202.247 266.548 200.939 267.064 200.003 268.096C199.091 269.104 198.635 270.448 198.635 272.128V275.296C198.635 276.976 199.091 278.332 200.003 279.364C200.939 280.372 202.247 280.876 203.927 280.876ZM226.089 283.432C224.745 283.432 223.533 283.204 222.453 282.748C221.397 282.292 220.485 281.644 219.717 280.804C218.973 279.94 218.397 278.92 217.989 277.744C217.581 276.544 217.377 275.212 217.377 273.748C217.377 272.26 217.581 270.916 217.989 269.716C218.421 268.516 219.009 267.496 219.753 266.656C220.497 265.792 221.385 265.132 222.417 264.676C223.473 264.22 224.637 263.992 225.909 263.992C227.157 263.992 228.285 264.22 229.293 264.676C230.325 265.132 231.201 265.768 231.921 266.584C232.641 267.376 233.193 268.324 233.577 269.428C233.961 270.532 234.153 271.744 234.153 273.064V274.432H220.401V275.296C220.401 276.112 220.533 276.868 220.797 277.564C221.061 278.26 221.433 278.86 221.913 279.364C222.417 279.868 223.017 280.264 223.713 280.552C224.433 280.816 225.225 280.948 226.089 280.948C227.337 280.948 228.417 280.66 229.329 280.084C230.241 279.508 230.937 278.716 231.417 277.708L233.541 279.148C232.989 280.396 232.065 281.428 230.769 282.244C229.497 283.036 227.937 283.432 226.089 283.432ZM225.909 266.368C225.117 266.368 224.385 266.512 223.713 266.8C223.041 267.088 222.453 267.484 221.949 267.988C221.469 268.492 221.085 269.092 220.797 269.788C220.533 270.46 220.401 271.204 220.401 272.02V272.272H231.057V271.876C231.057 271.06 230.925 270.316 230.661 269.644C230.421 268.972 230.073 268.396 229.617 267.916C229.185 267.412 228.645 267.028 227.997 266.764C227.373 266.5 226.677 266.368 225.909 266.368Z" fill="white"/>
<rect x="2" y="242" width="18" height="58" fill="white"/>
<rect x="1.5" y="-0.5" width="19" height="242" fill="#23A9F2" stroke="#006FB1"/>
<rect x="216" y="-28.8508" width="76.5785" height="158.444" transform="rotate(-45 216 -28.8508)" fill="#23A9F2"/>
</g>
<rect x="3" y="1" width="298" height="298" stroke="#006FB1" stroke-width="2"/>
</g>
<g clip-path="url(#clip1_185_278)">
<mask id="mask0_185_278" style="mask-type:alpha" maskUnits="userSpaceOnUse" x="65" y="36" width="180" height="180">
<path fill-rule="evenodd" clip-rule="evenodd" d="M192.641 214.771C195.476 215.875 198.709 215.804 201.57 214.427L238.629 196.595C242.524 194.722 245 190.78 245 186.457V65.5439C245 61.2203 242.524 57.2792 238.63 55.4054L201.57 37.5727C197.815 35.7657 193.42 36.2083 190.124 38.6044C189.654 38.9467 189.205 39.3289 188.784 39.7501L117.839 104.475L86.937 81.0172C84.0602 78.8336 80.0365 79.0126 77.3648 81.4429L67.4535 90.4588C64.1854 93.4315 64.1817 98.5728 67.4454 101.551L94.2448 126L67.4454 150.45C64.1817 153.427 64.1854 158.569 67.4535 161.541L77.3648 170.557C80.0365 172.988 84.0602 173.167 86.937 170.983L117.839 147.526L188.784 212.25C189.906 213.373 191.224 214.219 192.641 214.771ZM200.027 85.138L146.196 126L200.027 166.862V85.138Z" fill="white"/>
</mask>
<g mask="url(#mask0_185_278)">
<path d="M238.631 55.4328L201.542 37.5757C197.249 35.5087 192.119 36.3806 188.75 39.7497L67.3374 150.449C64.0718 153.427 64.0755 158.568 67.3455 161.541L77.2629 170.557C79.9363 172.987 83.9625 173.166 86.8408 170.983L233.05 60.0655C237.955 56.3444 245 59.8428 245 65.9997V65.5692C245 61.2474 242.524 57.3077 238.631 55.4328Z" fill="#0065A9"/>
<g filter="url(#filter1_d_185_278)">
<path d="M238.631 196.567L201.542 214.424C197.249 216.491 192.119 215.619 188.75 212.25L67.3374 101.55C64.0718 98.5727 64.0755 93.4312 67.3455 90.4585L77.2629 81.4427C79.9363 79.0123 83.9625 78.8334 86.8408 81.017L233.05 191.934C237.955 195.655 245 192.157 245 186V186.431C245 190.752 242.524 194.692 238.631 196.567Z" fill="#007ACC"/>
</g>
<g filter="url(#filter2_d_185_278)">
<path d="M201.544 214.427C197.25 216.493 192.119 215.619 188.75 212.25C192.902 216.401 200 213.461 200 207.59V44.4097C200 38.5386 192.902 35.5983 188.75 39.7498C192.119 36.3804 197.25 35.5073 201.544 37.5725L238.626 55.4052C242.522 57.279 245 61.2201 245 65.5437V186.457C245 190.78 242.522 194.721 238.625 196.595L201.544 214.427Z" fill="#1F9CF0"/>
</g>
<g style="mix-blend-mode:overlay" opacity="0.25">
<path fill-rule="evenodd" clip-rule="evenodd" d="M192.532 214.771C195.367 215.875 198.6 215.804 201.461 214.427L238.52 196.595C242.414 194.721 244.891 190.78 244.891 186.457V65.5437C244.891 61.22 242.414 57.2789 238.52 55.4051L201.461 37.5725C197.706 35.7655 193.311 36.2081 190.015 38.6042C189.544 38.9465 189.096 39.3287 188.675 39.7498L117.73 104.474L86.8275 81.0171C83.9509 78.8333 79.9271 79.0124 77.2554 81.4426L67.3441 90.4584C64.076 93.4313 64.0723 98.5727 67.336 101.55L94.1353 126L67.336 150.45C64.0723 153.427 64.076 158.568 67.3441 161.541L77.2554 170.557C79.9271 172.987 83.9509 173.166 86.8275 170.983L117.73 147.525L188.675 212.25C189.797 213.373 191.115 214.219 192.532 214.771ZM199.918 85.1378L146.087 126L199.918 166.862V85.1378Z" fill="url(#paint0_linear_185_278)"/>
</g>
</g>
</g>
<defs>
<filter id="filter0_d_185_278" x="0" y="0" width="312" height="312" filterUnits="userSpaceOnUse" color-interpolation-filters="sRGB">
<feFlood flood-opacity="0" result="BackgroundImageFix"/>
<feColorMatrix in="SourceAlpha" type="matrix" values="0 0 0 0 0 0 0 0 0 0 0 0 0 0 0 0 0 0 127 0" result="hardAlpha"/>
<feOffset dx="4" dy="6"/>
<feGaussianBlur stdDeviation="3"/>
<feComposite in2="hardAlpha" operator="out"/>
<feColorMatrix type="matrix" values="0 0 0 0 0 0 0 0 0 0 0 0 0 0 0 0 0 0 0.25 0"/>
<feBlend mode="normal" in2="BackgroundImageFix" result="effect1_dropShadow_185_278"/>
<feBlend mode="normal" in="SourceGraphic" in2="effect1_dropShadow_185_278" result="shape"/>
</filter>
<filter id="filter1_d_185_278" x="56.5573" y="71.1588" width="196.776" height="152.709" filterUnits="userSpaceOnUse" color-interpolation-filters="sRGB">
<feFlood flood-opacity="0" result="BackgroundImageFix"/>
<feColorMatrix in="SourceAlpha" type="matrix" values="0 0 0 0 0 0 0 0 0 0 0 0 0 0 0 0 0 0 127 0" result="hardAlpha"/>
<feOffset/>
<feGaussianBlur stdDeviation="4.16667"/>
<feColorMatrix type="matrix" values="0 0 0 0 0 0 0 0 0 0 0 0 0 0 0 0 0 0 0.25 0"/>
<feBlend mode="overlay" in2="BackgroundImageFix" result="effect1_dropShadow_185_278"/>
<feBlend mode="normal" in="SourceGraphic" in2="effect1_dropShadow_185_278" result="shape"/>
</filter>
<filter id="filter2_d_185_278" x="180.417" y="28.1305" width="72.9167" height="195.739" filterUnits="userSpaceOnUse" color-interpolation-filters="sRGB">
<feFlood flood-opacity="0" result="BackgroundImageFix"/>
<feColorMatrix in="SourceAlpha" type="matrix" values="0 0 0 0 0 0 0 0 0 0 0 0 0 0 0 0 0 0 127 0" result="hardAlpha"/>
<feOffset/>
<feGaussianBlur stdDeviation="4.16667"/>
<feColorMatrix type="matrix" values="0 0 0 0 0 0 0 0 0 0 0 0 0 0 0 0 0 0 0.25 0"/>
<feBlend mode="overlay" in2="BackgroundImageFix" result="effect1_dropShadow_185_278"/>
<feBlend mode="normal" in="SourceGraphic" in2="effect1_dropShadow_185_278" result="shape"/>
</filter>
<linearGradient id="paint0_linear_185_278" x1="154.891" y1="36.4639" x2="154.891" y2="215.536" gradientUnits="userSpaceOnUse">
<stop stop-color="white"/>
<stop offset="1" stop-color="white" stop-opacity="0"/>
</linearGradient>
<clipPath id="clip0_185_278">
<rect x="2" width="300" height="300" fill="white"/>
</clipPath>
<clipPath id="clip1_185_278">
<rect width="180" height="180" fill="white" transform="translate(65 36)"/>
</clipPath>
</defs>
</svg>
