<svg width="312" height="312" viewBox="0 0 312 312" fill="none" xmlns="http://www.w3.org/2000/svg">
<g filter="url(#filter0_d_185_191)">
<g clip-path="url(#clip0_185_191)">
<rect x="2" width="300" height="300" fill="white"/>
<mask id="path-3-outside-1_185_191" maskUnits="userSpaceOnUse" x="20" y="241" width="282" height="59" fill="black">
<rect fill="white" x="20" y="241" width="282" height="59"/>
<path d="M20 242H302V300H20V242Z"/>
</mask>
<path d="M20 242H302V300H20V242Z" fill="#E44D26"/>
<path d="M20 242V243H302V242V241H20V242Z" fill="#E44D26" mask="url(#path-3-outside-1_185_191)"/>
<path d="M122.731 271.588H112.939V283H109.915V257.872H112.939V268.96H122.731V257.872H125.755V283H122.731V271.588ZM140.933 260.5V283H137.909V260.5H129.521V257.872H149.321V260.5H140.933ZM166.587 270.4V262.444H166.299L161.007 275.368L155.715 262.444H155.427V270.4V283H152.655V257.872H156.543L160.971 268.96H161.187L165.615 257.872H169.359V283H166.587V270.4ZM176.113 283V257.872H179.137V280.372H191.053V283H176.113ZM211.415 260.5H200.183L199.463 270.112H199.715C200.339 269.272 201.035 268.612 201.803 268.132C202.571 267.628 203.627 267.376 204.971 267.376C206.075 267.376 207.083 267.556 207.995 267.916C208.931 268.252 209.735 268.756 210.407 269.428C211.079 270.1 211.607 270.916 211.991 271.876C212.375 272.812 212.567 273.892 212.567 275.116C212.567 276.34 212.375 277.468 211.991 278.5C211.607 279.508 211.043 280.384 210.299 281.128C209.555 281.848 208.655 282.412 207.599 282.82C206.543 283.228 205.343 283.432 203.999 283.432C202.943 283.432 201.995 283.312 201.155 283.072C200.339 282.832 199.607 282.508 198.959 282.1C198.335 281.692 197.783 281.236 197.303 280.732C196.823 280.228 196.391 279.7 196.007 279.148L198.275 277.42C198.611 277.924 198.947 278.38 199.283 278.788C199.643 279.196 200.051 279.556 200.507 279.868C200.963 280.156 201.479 280.384 202.055 280.552C202.631 280.72 203.303 280.804 204.071 280.804C205.799 280.804 207.119 280.336 208.031 279.4C208.967 278.464 209.435 277.168 209.435 275.512V275.224C209.435 273.568 208.967 272.272 208.031 271.336C207.095 270.4 205.751 269.932 203.999 269.932C202.799 269.932 201.863 270.136 201.191 270.544C200.543 270.952 199.943 271.456 199.391 272.056L196.835 271.696L197.735 257.872H211.415V260.5Z" fill="white"/>
<rect x="2" y="242" width="18" height="58" fill="white"/>
<rect x="1.5" y="-0.5" width="19" height="242" fill="#F16529" stroke="#E44D26"/>
<rect x="216" y="-28.8508" width="76.5785" height="158.444" transform="rotate(-45 216 -28.8508)" fill="#F16529"/>
</g>
<rect x="3" y="1" width="298" height="298" stroke="#E44D26" stroke-width="2"/>
</g>
<g clip-path="url(#clip1_185_191)">
<path d="M105.577 202.498L93.1331 62.929H229.867L217.41 202.477L161.416 218L105.577 202.498Z" fill="#E44D26"/>
<path d="M161.5 206.135L206.746 193.591L217.391 74.3408H161.5V206.135Z" fill="#F16529"/>
<path d="M161.5 126.105H138.849L137.285 108.577H161.5V91.4587H161.441H118.577L118.987 96.0512L123.194 143.223H161.5V126.105Z" fill="#EBEBEB"/>
<path d="M161.5 170.562L161.425 170.582L142.361 165.434L141.142 151.782H131.879H123.959L126.357 178.659L161.421 188.393L161.5 188.371V170.562Z" fill="#EBEBEB"/>
<path d="M105.855 25H114.554V33.5945H122.511V25H131.211V51.0264H122.512V42.3112H114.554V51.0264H105.855L105.855 25Z" fill="black"/>
<path d="M142.65 33.6307H134.992V25H159.011V33.6307H151.35V51.0264H142.65L142.65 33.6307Z" fill="black"/>
<path d="M162.823 25H171.894L177.474 34.1449L183.048 25H192.122V51.0264H183.459V38.1263L177.474 47.3801H177.324L171.335 38.1263V51.0264H162.823V25Z" fill="black"/>
<path d="M196.451 25H205.153V42.4235H217.386V51.0264H196.451V25Z" fill="black"/>
<path d="M161.441 126.105V143.223H182.519L180.532 165.423L161.441 170.576V188.385L196.533 178.659L196.79 175.767L200.813 130.702L201.23 126.105H196.618H161.441Z" fill="white"/>
<path d="M161.441 91.4587V102.09V108.535V108.577H202.733H202.788L203.131 104.729L203.911 96.0512L204.321 91.4587H161.441Z" fill="white"/>
</g>
<defs>
<filter id="filter0_d_185_191" x="0" y="0" width="312" height="312" filterUnits="userSpaceOnUse" color-interpolation-filters="sRGB">
<feFlood flood-opacity="0" result="BackgroundImageFix"/>
<feColorMatrix in="SourceAlpha" type="matrix" values="0 0 0 0 0 0 0 0 0 0 0 0 0 0 0 0 0 0 127 0" result="hardAlpha"/>
<feOffset dx="4" dy="6"/>
<feGaussianBlur stdDeviation="3"/>
<feComposite in2="hardAlpha" operator="out"/>
<feColorMatrix type="matrix" values="0 0 0 0 0 0 0 0 0 0 0 0 0 0 0 0 0 0 0.25 0"/>
<feBlend mode="normal" in2="BackgroundImageFix" result="effect1_dropShadow_185_191"/>
<feBlend mode="normal" in="SourceGraphic" in2="effect1_dropShadow_185_191" result="shape"/>
</filter>
<clipPath id="clip0_185_191">
<rect x="2" width="300" height="300" fill="white"/>
</clipPath>
<clipPath id="clip1_185_191">
<rect width="193" height="193" fill="white" transform="translate(65 25)"/>
</clipPath>
</defs>
</svg>
