<svg width="312" height="312" viewBox="0 0 312 312" fill="none" xmlns="http://www.w3.org/2000/svg">
<g filter="url(#filter0_d_185_315)">
<g clip-path="url(#clip0_185_315)">
<rect x="2" width="300" height="300" fill="white"/>
<mask id="path-3-outside-1_185_315" maskUnits="userSpaceOnUse" x="20" y="241" width="282" height="59" fill="black">
<rect fill="white" x="20" y="241" width="282" height="59"/>
<path d="M20 242H302V300H20V242Z"/>
</mask>
<path d="M20 242H302V300H20V242Z" fill="#FF7262"/>
<path d="M20 242V243H302V242V241H20V242Z" fill="#FF7262" mask="url(#path-3-outside-1_185_315)"/>
<path d="M110.275 283V257.872H126.115V260.5H113.299V268.96H125.035V271.588H113.299V283H110.275ZM140.573 260.32C139.733 260.32 139.145 260.152 138.809 259.816C138.473 259.456 138.305 259.012 138.305 258.484V257.908C138.305 257.38 138.473 256.948 138.809 256.612C139.145 256.252 139.733 256.072 140.573 256.072C141.413 256.072 142.001 256.252 142.337 256.612C142.673 256.948 142.841 257.38 142.841 257.908V258.484C142.841 259.012 142.673 259.456 142.337 259.816C142.001 260.152 141.413 260.32 140.573 260.32ZM132.437 280.552H139.133V266.872H132.437V264.424H142.013V280.552H148.277V283H132.437V280.552ZM170.403 285.124C170.403 286.996 169.623 288.376 168.063 289.264C166.503 290.176 164.163 290.632 161.043 290.632C158.043 290.632 155.883 290.236 154.563 289.444C153.267 288.652 152.619 287.512 152.619 286.024C152.619 285.016 152.883 284.236 153.411 283.684C153.939 283.132 154.683 282.724 155.643 282.46V282.028C155.115 281.764 154.707 281.428 154.419 281.02C154.131 280.612 153.987 280.096 153.987 279.472C153.987 278.512 154.299 277.792 154.923 277.312C155.571 276.832 156.375 276.472 157.335 276.232V276.088C156.183 275.584 155.283 274.84 154.635 273.856C154.011 272.872 153.699 271.72 153.699 270.4C153.699 269.464 153.867 268.6 154.203 267.808C154.539 267.016 155.019 266.344 155.643 265.792C156.291 265.216 157.059 264.772 157.947 264.46C158.835 264.148 159.819 263.992 160.899 263.992C162.291 263.992 163.515 264.244 164.571 264.748V264.424C164.571 263.704 164.739 263.104 165.075 262.624C165.411 262.144 165.987 261.904 166.803 261.904H170.223V264.424H166.047V265.684C166.719 266.26 167.235 266.944 167.595 267.736C167.955 268.528 168.135 269.416 168.135 270.4C168.135 271.336 167.955 272.2 167.595 272.992C167.259 273.784 166.779 274.468 166.155 275.044C165.531 275.596 164.763 276.028 163.851 276.34C162.963 276.652 161.979 276.808 160.899 276.808C160.587 276.808 160.287 276.796 159.999 276.772C159.711 276.748 159.423 276.712 159.135 276.664C158.847 276.712 158.547 276.796 158.235 276.916C157.923 277.012 157.635 277.156 157.371 277.348C157.107 277.516 156.891 277.72 156.723 277.96C156.555 278.2 156.471 278.476 156.471 278.788C156.471 279.34 156.747 279.712 157.299 279.904C157.851 280.072 158.571 280.156 159.459 280.156H163.563C165.963 280.156 167.703 280.612 168.783 281.524C169.863 282.412 170.403 283.612 170.403 285.124ZM167.703 285.268C167.703 284.524 167.403 283.924 166.803 283.468C166.203 283.036 165.159 282.82 163.671 282.82H157.227C155.979 283.324 155.355 284.164 155.355 285.34C155.355 286.156 155.679 286.852 156.327 287.428C156.975 288.028 158.055 288.328 159.567 288.328H162.375C164.055 288.328 165.363 288.064 166.299 287.536C167.235 287.032 167.703 286.276 167.703 285.268ZM160.899 274.576C162.339 274.576 163.395 274.24 164.067 273.568C164.763 272.896 165.111 272.008 165.111 270.904V269.86C165.111 268.756 164.763 267.88 164.067 267.232C163.395 266.56 162.339 266.224 160.899 266.224C159.459 266.224 158.403 266.56 157.731 267.232C157.059 267.88 156.723 268.756 156.723 269.86V270.904C156.723 272.008 157.059 272.896 157.731 273.568C158.403 274.24 159.459 274.576 160.899 274.576ZM173.737 283V264.424H176.401V266.584H176.545C176.833 265.864 177.241 265.252 177.769 264.748C178.297 264.244 179.077 263.992 180.109 263.992C181.189 263.992 181.993 264.268 182.521 264.82C183.049 265.348 183.373 266.044 183.493 266.908H183.601C183.937 266.068 184.417 265.372 185.041 264.82C185.665 264.268 186.529 263.992 187.633 263.992C189.145 263.992 190.153 264.52 190.657 265.576C191.185 266.632 191.449 268.144 191.449 270.112V283H188.785V270.58C188.785 268.996 188.617 267.904 188.281 267.304C187.969 266.68 187.381 266.368 186.517 266.368C185.749 266.368 185.125 266.62 184.645 267.124C184.165 267.604 183.925 268.348 183.925 269.356V283H181.261V270.58C181.261 268.996 181.093 267.904 180.757 267.304C180.445 266.68 179.869 266.368 179.029 266.368C178.261 266.368 177.625 266.62 177.121 267.124C176.641 267.604 176.401 268.348 176.401 269.356V283H173.737ZM211.199 283C210.071 283 209.267 282.712 208.787 282.136C208.307 281.56 208.007 280.84 207.887 279.976H207.707C207.299 281.056 206.639 281.908 205.727 282.532C204.839 283.132 203.639 283.432 202.127 283.432C200.183 283.432 198.635 282.928 197.483 281.92C196.331 280.912 195.755 279.532 195.755 277.78C195.755 276.052 196.379 274.72 197.627 273.784C198.899 272.848 200.939 272.38 203.747 272.38H207.707V270.544C207.707 269.176 207.323 268.156 206.555 267.484C205.787 266.788 204.695 266.44 203.279 266.44C202.031 266.44 201.011 266.692 200.219 267.196C199.427 267.676 198.791 268.336 198.311 269.176L196.367 267.736C196.607 267.256 196.931 266.788 197.339 266.332C197.747 265.876 198.251 265.48 198.851 265.144C199.451 264.784 200.135 264.508 200.903 264.316C201.671 264.1 202.523 263.992 203.459 263.992C205.643 263.992 207.371 264.544 208.643 265.648C209.939 266.752 210.587 268.288 210.587 270.256V280.48H213.179V283H211.199ZM202.631 281.02C203.375 281.02 204.047 280.936 204.647 280.768C205.271 280.576 205.811 280.336 206.267 280.048C206.723 279.736 207.071 279.376 207.311 278.968C207.575 278.536 207.707 278.08 207.707 277.6V274.54H203.747C202.019 274.54 200.759 274.78 199.967 275.26C199.175 275.74 198.779 276.436 198.779 277.348V278.104C198.779 279.064 199.115 279.796 199.787 280.3C200.483 280.78 201.431 281.02 202.631 281.02Z" fill="white"/>
<rect x="2" y="242" width="18" height="58" fill="white"/>
<rect x="1.5" y="-0.5" width="19" height="242" fill="#0ACF83" stroke="#FF7262"/>
<rect x="216" y="-28.8508" width="76.5785" height="158.444" transform="rotate(-45 216 -28.8508)" fill="#0ACF83"/>
</g>
<rect x="3" y="1" width="298" height="298" stroke="#FF7262" stroke-width="2"/>
</g>
<g clip-path="url(#clip1_185_315)">
<path d="M160.5 121C160.5 103.689 174.57 89.6558 191.927 89.6558C209.283 89.6558 223.354 103.689 223.354 121C223.354 138.311 209.283 152.344 191.927 152.344C174.57 152.344 160.5 138.311 160.5 121Z" fill="#1ABCFE"/>
<path d="M97.6465 183.689C97.6465 166.378 111.717 152.344 129.073 152.344H160.5V183.689C160.5 201 146.43 215.033 129.073 215.033C111.717 215.033 97.6465 201 97.6465 183.689Z" fill="#0ACF83"/>
<path d="M160.5 26.9673V89.6556H191.927C209.283 89.6556 223.354 75.6225 223.354 58.3115C223.354 41.0006 209.283 26.9673 191.927 26.9673H160.5Z" fill="#FF7262"/>
<path d="M97.6465 58.3116C97.6465 75.6225 111.717 89.6557 129.073 89.6557H160.5V26.9673H129.073C111.717 26.9673 97.6465 41.0006 97.6465 58.3116Z" fill="#F24E1E"/>
<path d="M97.6465 121C97.6465 138.311 111.717 152.344 129.073 152.344H160.5V89.6558H129.073C111.717 89.6558 97.6465 103.689 97.6465 121Z" fill="#A259FF"/>
</g>
<defs>
<filter id="filter0_d_185_315" x="0" y="0" width="312" height="312" filterUnits="userSpaceOnUse" color-interpolation-filters="sRGB">
<feFlood flood-opacity="0" result="BackgroundImageFix"/>
<feColorMatrix in="SourceAlpha" type="matrix" values="0 0 0 0 0 0 0 0 0 0 0 0 0 0 0 0 0 0 127 0" result="hardAlpha"/>
<feOffset dx="4" dy="6"/>
<feGaussianBlur stdDeviation="3"/>
<feComposite in2="hardAlpha" operator="out"/>
<feColorMatrix type="matrix" values="0 0 0 0 0 0 0 0 0 0 0 0 0 0 0 0 0 0 0.25 0"/>
<feBlend mode="normal" in2="BackgroundImageFix" result="effect1_dropShadow_185_315"/>
<feBlend mode="normal" in="SourceGraphic" in2="effect1_dropShadow_185_315" result="shape"/>
</filter>
<clipPath id="clip0_185_315">
<rect x="2" width="300" height="300" fill="white"/>
</clipPath>
<clipPath id="clip1_185_315">
<rect width="127" height="190" fill="white" transform="translate(97 26)"/>
</clipPath>
</defs>
</svg>
