<svg width="312" height="312" viewBox="0 0 312 312" fill="none" xmlns="http://www.w3.org/2000/svg">
<g filter="url(#filter0_d_185_300)">
<g clip-path="url(#clip0_185_300)">
<rect x="2" width="300" height="300" fill="white"/>
<mask id="path-3-outside-1_185_300" maskUnits="userSpaceOnUse" x="20" y="241" width="282" height="59" fill="black">
<rect fill="white" x="20" y="241" width="282" height="59"/>
<path d="M20 242H302V300H20V242Z"/>
</mask>
<path d="M20 242H302V300H20V242Z" fill="#24292F"/>
<path d="M20 242V243H302V242V241H20V242Z" fill="#24292F" mask="url(#path-3-outside-1_185_300)"/>
<path d="M112.226 279.652H112.046C111.83 280.132 111.578 280.6 111.29 281.056C111.002 281.512 110.63 281.92 110.174 282.28C109.742 282.616 109.214 282.892 108.59 283.108C107.966 283.324 107.222 283.432 106.358 283.432C103.622 283.432 101.582 282.328 100.238 280.12C98.9182 277.912 98.2582 274.744 98.2582 270.616C98.2582 266.296 98.9902 263.02 100.454 260.788C101.918 258.556 104.174 257.44 107.222 257.44C108.398 257.44 109.418 257.596 110.282 257.908C111.146 258.22 111.878 258.64 112.478 259.168C113.102 259.696 113.618 260.296 114.026 260.968C114.434 261.616 114.77 262.276 115.034 262.948L112.442 264.136C112.226 263.584 111.974 263.068 111.686 262.588C111.422 262.084 111.086 261.652 110.678 261.292C110.294 260.908 109.826 260.608 109.274 260.392C108.722 260.176 108.074 260.068 107.33 260.068C105.314 260.068 103.826 260.824 102.866 262.336C101.93 263.848 101.462 265.864 101.462 268.384V272.272C101.462 273.544 101.558 274.708 101.75 275.764C101.942 276.796 102.254 277.696 102.686 278.464C103.142 279.232 103.718 279.832 104.414 280.264C105.134 280.672 106.01 280.876 107.042 280.876C108.674 280.876 109.946 280.384 110.858 279.4C111.77 278.416 112.226 277.144 112.226 275.584V272.992H106.934V270.58H115.034V283H112.226V279.652ZM129.78 260.32C128.94 260.32 128.352 260.152 128.016 259.816C127.68 259.456 127.512 259.012 127.512 258.484V257.908C127.512 257.38 127.68 256.948 128.016 256.612C128.352 256.252 128.94 256.072 129.78 256.072C130.62 256.072 131.208 256.252 131.544 256.612C131.88 256.948 132.048 257.38 132.048 257.908V258.484C132.048 259.012 131.88 259.456 131.544 259.816C131.208 260.152 130.62 260.32 129.78 260.32ZM121.644 280.552H128.34V266.872H121.644V264.424H131.22V280.552H137.484V283H121.644V280.552ZM151.114 283C149.698 283 148.654 282.604 147.982 281.812C147.334 281.02 147.01 280 147.01 278.752V266.872H140.818V264.424H145.426C146.05 264.424 146.482 264.304 146.722 264.064C146.986 263.8 147.118 263.356 147.118 262.732V257.872H149.89V264.424H158.35V266.872H149.89V280.552H158.35V283H151.114ZM176.696 271.588H166.904V283H163.88V257.872H166.904V268.96H176.696V257.872H179.72V283H176.696V271.588ZM197.778 279.976H197.634C197.442 280.432 197.202 280.876 196.914 281.308C196.626 281.716 196.266 282.076 195.834 282.388C195.426 282.7 194.934 282.952 194.358 283.144C193.782 283.336 193.11 283.432 192.342 283.432C190.398 283.432 188.838 282.82 187.662 281.596C186.486 280.348 185.898 278.596 185.898 276.34V264.424H188.778V275.836C188.778 277.54 189.15 278.812 189.894 279.652C190.638 280.468 191.73 280.876 193.17 280.876C193.746 280.876 194.31 280.804 194.862 280.66C195.414 280.516 195.906 280.3 196.338 280.012C196.77 279.724 197.118 279.364 197.382 278.932C197.646 278.476 197.778 277.936 197.778 277.312V264.424H200.658V283H197.778V279.976ZM207.592 256.36H210.472V267.448H210.616C211.816 265.144 213.724 263.992 216.34 263.992C218.62 263.992 220.396 264.844 221.668 266.548C222.964 268.252 223.612 270.64 223.612 273.712C223.612 276.784 222.964 279.172 221.668 280.876C220.396 282.58 218.62 283.432 216.34 283.432C213.724 283.432 211.816 282.28 210.616 279.976H210.472V283H207.592V256.36ZM215.224 280.876C216.904 280.876 218.2 280.372 219.112 279.364C220.048 278.332 220.516 276.976 220.516 275.296V272.128C220.516 270.448 220.048 269.104 219.112 268.096C218.2 267.064 216.904 266.548 215.224 266.548C214.576 266.548 213.964 266.632 213.388 266.8C212.812 266.968 212.308 267.22 211.876 267.556C211.444 267.868 211.096 268.264 210.832 268.744C210.592 269.2 210.472 269.74 210.472 270.364V277.06C210.472 277.684 210.592 278.236 210.832 278.716C211.096 279.172 211.444 279.568 211.876 279.904C212.308 280.216 212.812 280.456 213.388 280.624C213.964 280.792 214.576 280.876 215.224 280.876Z" fill="white"/>
<rect x="2" y="242" width="18" height="58" fill="white"/>
<rect x="1.5" y="-0.5" width="19" height="242" fill="#559751" stroke="#24292F"/>
<rect x="216" y="-28.8508" width="76.5785" height="158.444" transform="rotate(-45 216 -28.8508)" fill="#559751"/>
</g>
<rect x="3" y="1" width="298" height="298" stroke="#24292F" stroke-width="2"/>
</g>
<g clip-path="url(#clip1_185_300)">
<path fill-rule="evenodd" clip-rule="evenodd" d="M160.726 33C110.004 33 69 74.25 69 125.282C69 166.074 95.2726 200.604 131.72 212.826C136.276 213.744 137.946 210.84 137.946 208.397C137.946 206.257 137.795 198.924 137.795 191.284C112.279 196.785 106.966 180.283 106.966 180.283C102.865 169.588 96.7896 166.839 96.7896 166.839C88.4383 161.186 97.398 161.186 97.398 161.186C106.662 161.797 111.523 170.659 111.523 170.659C119.722 184.714 132.934 180.742 138.25 178.297C139.008 172.339 141.44 168.214 144.021 165.922C123.671 163.783 102.259 155.839 102.259 120.392C102.259 110.308 105.901 102.058 111.673 95.6419C110.762 93.3506 107.572 83.8763 112.585 71.1956C112.585 71.1956 120.33 68.7506 137.793 80.6681C145.27 78.6481 152.981 77.6205 160.726 77.6119C168.471 77.6119 176.366 78.6825 183.656 80.6681C201.121 68.7506 208.866 71.1956 208.866 71.1956C213.879 83.8763 210.687 93.3506 209.777 95.6419C215.701 102.058 219.193 110.308 219.193 120.392C219.193 155.839 197.781 163.629 177.278 165.922C180.62 168.825 183.504 174.324 183.504 183.034C183.504 195.409 183.354 205.341 183.354 208.395C183.354 210.84 185.025 213.744 189.58 212.827C226.027 200.602 252.3 166.074 252.3 125.282C252.45 74.25 211.296 33 160.726 33Z" fill="#24292F"/>
</g>
<defs>
<filter id="filter0_d_185_300" x="0" y="0" width="312" height="312" filterUnits="userSpaceOnUse" color-interpolation-filters="sRGB">
<feFlood flood-opacity="0" result="BackgroundImageFix"/>
<feColorMatrix in="SourceAlpha" type="matrix" values="0 0 0 0 0 0 0 0 0 0 0 0 0 0 0 0 0 0 127 0" result="hardAlpha"/>
<feOffset dx="4" dy="6"/>
<feGaussianBlur stdDeviation="3"/>
<feComposite in2="hardAlpha" operator="out"/>
<feColorMatrix type="matrix" values="0 0 0 0 0 0 0 0 0 0 0 0 0 0 0 0 0 0 0.25 0"/>
<feBlend mode="normal" in2="BackgroundImageFix" result="effect1_dropShadow_185_300"/>
<feBlend mode="normal" in="SourceGraphic" in2="effect1_dropShadow_185_300" result="shape"/>
</filter>
<clipPath id="clip0_185_300">
<rect x="2" width="300" height="300" fill="white"/>
</clipPath>
<clipPath id="clip1_185_300">
<rect width="184" height="180" fill="white" transform="translate(69 33)"/>
</clipPath>
</defs>
</svg>
