<svg width="312" height="312" viewBox="0 0 312 312" fill="none" xmlns="http://www.w3.org/2000/svg">
<g filter="url(#filter0_d_185_189)">
<g clip-path="url(#clip0_185_189)">
<rect x="2" width="300" height="300" fill="white"/>
<mask id="path-3-outside-1_185_189" maskUnits="userSpaceOnUse" x="20" y="241" width="282" height="59" fill="black">
<rect fill="white" x="20" y="241" width="282" height="59"/>
<path d="M20 242H302V300H20V242Z"/>
</mask>
<path d="M20 242H302V300H20V242Z" fill="#323330"/>
<path d="M20 242V243H302V242V241H20V242Z" fill="#323330" mask="url(#path-3-outside-1_185_189)"/>
<path d="M59.5573 257.872V276.484C59.5573 277.54 59.3773 278.5 59.0173 279.364C58.6573 280.228 58.1413 280.96 57.4693 281.56C56.8213 282.16 56.0413 282.628 55.1293 282.964C54.2173 283.276 53.2213 283.432 52.1413 283.432C50.2213 283.432 48.6373 282.94 47.3893 281.956C46.1413 280.948 45.3253 279.544 44.9413 277.744L47.8213 277.132C47.9413 277.636 48.0973 278.116 48.2893 278.572C48.5053 279.004 48.7813 279.388 49.1173 279.724C49.4773 280.036 49.9093 280.288 50.4133 280.48C50.9173 280.672 51.5173 280.768 52.2133 280.768C53.5813 280.768 54.6373 280.384 55.3813 279.616C56.1493 278.824 56.5333 277.6 56.5333 275.944V260.5H47.4613V257.872H59.5573ZM81.6833 283C80.5553 283 79.7513 282.712 79.2713 282.136C78.7913 281.56 78.4913 280.84 78.3713 279.976H78.1913C77.7833 281.056 77.1233 281.908 76.2113 282.532C75.3233 283.132 74.1233 283.432 72.6113 283.432C70.6673 283.432 69.1193 282.928 67.9673 281.92C66.8153 280.912 66.2393 279.532 66.2393 277.78C66.2393 276.052 66.8633 274.72 68.1113 273.784C69.3833 272.848 71.4233 272.38 74.2313 272.38H78.1913V270.544C78.1913 269.176 77.8073 268.156 77.0393 267.484C76.2713 266.788 75.1793 266.44 73.7633 266.44C72.5153 266.44 71.4953 266.692 70.7033 267.196C69.9113 267.676 69.2753 268.336 68.7953 269.176L66.8513 267.736C67.0913 267.256 67.4153 266.788 67.8233 266.332C68.2313 265.876 68.7353 265.48 69.3353 265.144C69.9353 264.784 70.6193 264.508 71.3873 264.316C72.1553 264.1 73.0073 263.992 73.9433 263.992C76.1273 263.992 77.8553 264.544 79.1273 265.648C80.4233 266.752 81.0713 268.288 81.0713 270.256V280.48H83.6633V283H81.6833ZM73.1153 281.02C73.8593 281.02 74.5313 280.936 75.1313 280.768C75.7553 280.576 76.2953 280.336 76.7513 280.048C77.2073 279.736 77.5553 279.376 77.7953 278.968C78.0593 278.536 78.1913 278.08 78.1913 277.6V274.54H74.2313C72.5033 274.54 71.2433 274.78 70.4513 275.26C69.6593 275.74 69.2633 276.436 69.2633 277.348V278.104C69.2633 279.064 69.5993 279.796 70.2713 280.3C70.9673 280.78 71.9153 281.02 73.1153 281.02ZM94.4132 283L87.7532 264.424H90.6692L93.3332 272.2L96.2132 280.588H96.3572L99.2372 272.2L101.901 264.424H104.745L98.0852 283H94.4132ZM124.855 283C123.727 283 122.923 282.712 122.443 282.136C121.963 281.56 121.663 280.84 121.543 279.976H121.363C120.955 281.056 120.295 281.908 119.383 282.532C118.495 283.132 117.295 283.432 115.783 283.432C113.839 283.432 112.291 282.928 111.139 281.92C109.987 280.912 109.411 279.532 109.411 277.78C109.411 276.052 110.035 274.72 111.283 273.784C112.555 272.848 114.595 272.38 117.403 272.38H121.363V270.544C121.363 269.176 120.979 268.156 120.211 267.484C119.443 266.788 118.351 266.44 116.935 266.44C115.687 266.44 114.667 266.692 113.875 267.196C113.083 267.676 112.447 268.336 111.967 269.176L110.023 267.736C110.263 267.256 110.587 266.788 110.995 266.332C111.403 265.876 111.907 265.48 112.507 265.144C113.107 264.784 113.791 264.508 114.559 264.316C115.327 264.1 116.179 263.992 117.115 263.992C119.299 263.992 121.027 264.544 122.299 265.648C123.595 266.752 124.243 268.288 124.243 270.256V280.48H126.835V283H124.855ZM116.287 281.02C117.031 281.02 117.703 280.936 118.303 280.768C118.927 280.576 119.467 280.336 119.923 280.048C120.379 279.736 120.727 279.376 120.967 278.968C121.231 278.536 121.363 278.08 121.363 277.6V274.54H117.403C115.675 274.54 114.415 274.78 113.623 275.26C112.831 275.74 112.435 276.436 112.435 277.348V278.104C112.435 279.064 112.771 279.796 113.443 280.3C114.139 280.78 115.087 281.02 116.287 281.02ZM160.935 283.432C158.679 283.432 156.831 283.024 155.391 282.208C153.951 281.368 152.763 280.3 151.827 279.004L154.023 277.204C155.007 278.428 156.039 279.34 157.119 279.94C158.223 280.54 159.531 280.84 161.043 280.84C162.867 280.84 164.259 280.42 165.219 279.58C166.179 278.74 166.659 277.564 166.659 276.052C166.659 274.828 166.311 273.88 165.615 273.208C164.919 272.512 163.707 272.02 161.979 271.732L159.171 271.264C157.947 271.048 156.915 270.724 156.075 270.292C155.259 269.86 154.599 269.344 154.095 268.744C153.591 268.12 153.231 267.448 153.015 266.728C152.799 265.984 152.691 265.216 152.691 264.424C152.691 262.12 153.447 260.38 154.959 259.204C156.471 258.028 158.511 257.44 161.079 257.44C163.095 257.44 164.787 257.776 166.155 258.448C167.547 259.12 168.663 260.068 169.503 261.292L167.379 263.128C166.683 262.216 165.843 261.472 164.859 260.896C163.875 260.32 162.603 260.032 161.043 260.032C159.339 260.032 158.031 260.392 157.119 261.112C156.207 261.832 155.751 262.912 155.751 264.352C155.751 265.48 156.087 266.404 156.759 267.124C157.455 267.82 158.691 268.324 160.467 268.636L163.167 269.104C164.391 269.32 165.423 269.644 166.263 270.076C167.103 270.508 167.775 271.024 168.279 271.624C168.807 272.224 169.179 272.896 169.395 273.64C169.611 274.384 169.719 275.164 169.719 275.98C169.719 278.308 168.951 280.132 167.415 281.452C165.903 282.772 163.743 283.432 160.935 283.432ZM183.241 283.432C181.897 283.432 180.697 283.204 179.641 282.748C178.609 282.268 177.733 281.608 177.013 280.768C176.293 279.928 175.741 278.908 175.357 277.708C174.997 276.508 174.817 275.176 174.817 273.712C174.817 272.248 175.009 270.916 175.393 269.716C175.777 268.516 176.329 267.496 177.049 266.656C177.769 265.792 178.645 265.132 179.677 264.676C180.709 264.22 181.885 263.992 183.205 263.992C185.005 263.992 186.469 264.388 187.597 265.18C188.725 265.972 189.553 267.004 190.081 268.276L187.777 269.5C187.441 268.54 186.877 267.796 186.085 267.268C185.317 266.74 184.357 266.476 183.205 266.476C182.365 266.476 181.609 266.62 180.937 266.908C180.289 267.172 179.737 267.556 179.281 268.06C178.825 268.564 178.477 269.164 178.237 269.86C178.021 270.556 177.913 271.312 177.913 272.128V275.296C177.913 276.112 178.021 276.868 178.237 277.564C178.477 278.26 178.825 278.86 179.281 279.364C179.737 279.868 180.301 280.264 180.973 280.552C181.645 280.816 182.413 280.948 183.277 280.948C184.525 280.948 185.557 280.66 186.373 280.084C187.189 279.508 187.837 278.716 188.317 277.708L190.369 279.112C189.817 280.36 188.953 281.392 187.777 282.208C186.625 283.024 185.113 283.432 183.241 283.432ZM196.151 280.552H201.587V266.872H196.151V264.424H204.467V269.104H204.647C205.031 267.64 205.751 266.5 206.807 265.684C207.887 264.844 209.255 264.424 210.911 264.424H213.503V267.304H210.011C208.355 267.304 207.011 267.784 205.979 268.744C204.971 269.704 204.467 270.964 204.467 272.524V280.552H211.667V283H196.151V280.552ZM226.917 260.32C226.077 260.32 225.489 260.152 225.153 259.816C224.817 259.456 224.649 259.012 224.649 258.484V257.908C224.649 257.38 224.817 256.948 225.153 256.612C225.489 256.252 226.077 256.072 226.917 256.072C227.757 256.072 228.345 256.252 228.681 256.612C229.017 256.948 229.185 257.38 229.185 257.908V258.484C229.185 259.012 229.017 259.456 228.681 259.816C228.345 260.152 227.757 260.32 226.917 260.32ZM218.781 280.552H225.477V266.872H218.781V264.424H228.357V280.552H234.621V283H218.781V280.552ZM239.971 264.424H242.851V267.448H242.995C244.195 265.144 246.103 263.992 248.719 263.992C250.999 263.992 252.775 264.844 254.047 266.548C255.343 268.252 255.991 270.64 255.991 273.712C255.991 276.784 255.343 279.172 254.047 280.876C252.775 282.58 250.999 283.432 248.719 283.432C246.103 283.432 244.195 282.28 242.995 279.976H242.851V290.2H239.971V264.424ZM247.603 280.876C249.283 280.876 250.579 280.372 251.491 279.364C252.427 278.332 252.895 276.976 252.895 275.296V272.128C252.895 270.448 252.427 269.104 251.491 268.096C250.579 267.064 249.283 266.548 247.603 266.548C246.955 266.548 246.343 266.632 245.767 266.8C245.191 266.968 244.687 267.22 244.255 267.556C243.823 267.868 243.475 268.264 243.211 268.744C242.971 269.2 242.851 269.74 242.851 270.364V277.06C242.851 277.684 242.971 278.236 243.211 278.716C243.475 279.172 243.823 279.568 244.255 279.904C244.687 280.216 245.191 280.456 245.767 280.624C246.343 280.792 246.955 280.876 247.603 280.876ZM269.837 283C268.421 283 267.377 282.604 266.705 281.812C266.057 281.02 265.733 280 265.733 278.752V266.872H259.541V264.424H264.149C264.773 264.424 265.205 264.304 265.445 264.064C265.709 263.8 265.841 263.356 265.841 262.732V257.872H268.613V264.424H277.073V266.872H268.613V280.552H277.073V283H269.837Z" fill="white"/>
<rect x="2" y="242" width="18" height="58" fill="white"/>
<rect x="1.5" y="-0.5" width="19" height="242" fill="#F0DB4F" stroke="#323330"/>
<rect x="216" y="-28.8508" width="76.5785" height="158.444" transform="rotate(-45 216 -28.8508)" fill="#F0DB4F"/>
</g>
<rect x="3" y="1" width="298" height="298" stroke="#323330" stroke-width="2"/>
</g>
<g clip-path="url(#clip1_185_189)">
<path d="M244 38H78V204H244V38Z" fill="#F7DF1E"/>
<path d="M121.647 176.722L134.351 169.034C136.802 173.379 139.031 177.055 144.379 177.055C149.505 177.055 152.737 175.05 152.737 167.251V114.21H168.336V167.471C168.336 183.629 158.865 190.983 145.048 190.983C132.568 190.983 125.324 184.52 121.647 176.72" fill="black"/>
<path d="M176.81 175.05L189.511 167.696C192.855 173.156 197.201 177.168 204.889 177.168C211.353 177.168 215.475 173.936 215.475 169.478C215.475 164.13 211.241 162.235 204.109 159.116L200.21 157.444C188.955 152.653 181.489 146.636 181.489 133.933C181.489 122.233 190.403 113.318 204.332 113.318C214.249 113.318 221.381 116.773 226.506 125.799L214.36 133.598C211.686 128.807 208.789 126.913 204.332 126.913C199.764 126.913 196.866 129.81 196.866 133.598C196.866 138.279 199.764 140.173 206.449 143.071L210.348 144.742C223.609 150.425 231.075 156.219 231.075 169.256C231.075 183.296 220.043 190.984 205.224 190.984C190.738 190.984 181.377 184.076 176.81 175.05Z" fill="black"/>
</g>
<defs>
<filter id="filter0_d_185_189" x="0" y="0" width="312" height="312" filterUnits="userSpaceOnUse" color-interpolation-filters="sRGB">
<feFlood flood-opacity="0" result="BackgroundImageFix"/>
<feColorMatrix in="SourceAlpha" type="matrix" values="0 0 0 0 0 0 0 0 0 0 0 0 0 0 0 0 0 0 127 0" result="hardAlpha"/>
<feOffset dx="4" dy="6"/>
<feGaussianBlur stdDeviation="3"/>
<feComposite in2="hardAlpha" operator="out"/>
<feColorMatrix type="matrix" values="0 0 0 0 0 0 0 0 0 0 0 0 0 0 0 0 0 0 0.25 0"/>
<feBlend mode="normal" in2="BackgroundImageFix" result="effect1_dropShadow_185_189"/>
<feBlend mode="normal" in="SourceGraphic" in2="effect1_dropShadow_185_189" result="shape"/>
</filter>
<clipPath id="clip0_185_189">
<rect x="2" width="300" height="300" fill="white"/>
</clipPath>
<clipPath id="clip1_185_189">
<rect width="166" height="166" fill="white" transform="translate(78 38)"/>
</clipPath>
</defs>
</svg>
