<svg width="312" height="312" viewBox="0 0 312 312" fill="none" xmlns="http://www.w3.org/2000/svg">
<g filter="url(#filter0_d_185_190)">
<g clip-path="url(#clip0_185_190)">
<rect x="2" width="300" height="300" fill="white"/>
<mask id="path-3-outside-1_185_190" maskUnits="userSpaceOnUse" x="20" y="241" width="282" height="59" fill="black">
<rect fill="white" x="20" y="241" width="282" height="59"/>
<path d="M20 242H302V300H20V242Z"/>
</mask>
<path d="M20 242H302V300H20V242Z" fill="#264DE4"/>
<path d="M20 242V243H302V242V241H20V242Z" fill="#264DE4" mask="url(#path-3-outside-1_185_190)"/>
<path d="M129.456 283.432C126.384 283.432 124.092 282.316 122.58 280.084C121.092 277.852 120.348 274.636 120.348 270.436C120.348 266.236 121.092 263.02 122.58 260.788C124.092 258.556 126.384 257.44 129.456 257.44C130.608 257.44 131.604 257.596 132.444 257.908C133.284 258.22 134.004 258.64 134.604 259.168C135.204 259.696 135.708 260.296 136.116 260.968C136.524 261.616 136.884 262.276 137.196 262.948L134.604 264.136C134.388 263.584 134.136 263.068 133.848 262.588C133.56 262.084 133.212 261.652 132.804 261.292C132.42 260.908 131.952 260.608 131.4 260.392C130.872 260.176 130.224 260.068 129.456 260.068C127.464 260.068 125.976 260.824 124.992 262.336C124.032 263.848 123.552 265.864 123.552 268.384V272.488C123.552 275.008 124.032 277.024 124.992 278.536C125.976 280.048 127.464 280.804 129.456 280.804C130.224 280.804 130.872 280.696 131.4 280.48C131.952 280.264 132.42 279.976 132.804 279.616C133.212 279.232 133.56 278.8 133.848 278.32C134.136 277.816 134.388 277.288 134.604 276.736L137.196 277.924C136.884 278.62 136.524 279.292 136.116 279.94C135.708 280.588 135.204 281.176 134.604 281.704C134.004 282.232 133.284 282.652 132.444 282.964C131.604 283.276 130.608 283.432 129.456 283.432ZM150.142 283.432C147.886 283.432 146.038 283.024 144.598 282.208C143.158 281.368 141.97 280.3 141.034 279.004L143.23 277.204C144.214 278.428 145.246 279.34 146.326 279.94C147.43 280.54 148.738 280.84 150.25 280.84C152.074 280.84 153.466 280.42 154.426 279.58C155.386 278.74 155.866 277.564 155.866 276.052C155.866 274.828 155.518 273.88 154.822 273.208C154.126 272.512 152.914 272.02 151.186 271.732L148.378 271.264C147.154 271.048 146.122 270.724 145.282 270.292C144.466 269.86 143.806 269.344 143.302 268.744C142.798 268.12 142.438 267.448 142.222 266.728C142.006 265.984 141.898 265.216 141.898 264.424C141.898 262.12 142.654 260.38 144.166 259.204C145.678 258.028 147.718 257.44 150.286 257.44C152.302 257.44 153.994 257.776 155.362 258.448C156.754 259.12 157.87 260.068 158.71 261.292L156.586 263.128C155.89 262.216 155.05 261.472 154.066 260.896C153.082 260.32 151.81 260.032 150.25 260.032C148.546 260.032 147.238 260.392 146.326 261.112C145.414 261.832 144.958 262.912 144.958 264.352C144.958 265.48 145.294 266.404 145.966 267.124C146.662 267.82 147.898 268.324 149.674 268.636L152.374 269.104C153.598 269.32 154.63 269.644 155.47 270.076C156.31 270.508 156.982 271.024 157.486 271.624C158.014 272.224 158.386 272.896 158.602 273.64C158.818 274.384 158.926 275.164 158.926 275.98C158.926 278.308 158.158 280.132 156.622 281.452C155.11 282.772 152.95 283.432 150.142 283.432ZM171.728 283.432C169.472 283.432 167.624 283.024 166.184 282.208C164.744 281.368 163.556 280.3 162.62 279.004L164.816 277.204C165.8 278.428 166.832 279.34 167.912 279.94C169.016 280.54 170.324 280.84 171.836 280.84C173.66 280.84 175.052 280.42 176.012 279.58C176.972 278.74 177.452 277.564 177.452 276.052C177.452 274.828 177.104 273.88 176.408 273.208C175.712 272.512 174.5 272.02 172.772 271.732L169.964 271.264C168.74 271.048 167.708 270.724 166.868 270.292C166.052 269.86 165.392 269.344 164.888 268.744C164.384 268.12 164.024 267.448 163.808 266.728C163.592 265.984 163.484 265.216 163.484 264.424C163.484 262.12 164.24 260.38 165.752 259.204C167.264 258.028 169.304 257.44 171.872 257.44C173.888 257.44 175.58 257.776 176.948 258.448C178.34 259.12 179.456 260.068 180.296 261.292L178.172 263.128C177.476 262.216 176.636 261.472 175.652 260.896C174.668 260.32 173.396 260.032 171.836 260.032C170.132 260.032 168.824 260.392 167.912 261.112C167 261.832 166.544 262.912 166.544 264.352C166.544 265.48 166.88 266.404 167.552 267.124C168.248 267.82 169.484 268.324 171.26 268.636L173.96 269.104C175.184 269.32 176.216 269.644 177.056 270.076C177.896 270.508 178.568 271.024 179.072 271.624C179.6 272.224 179.972 272.896 180.188 273.64C180.404 274.384 180.512 275.164 180.512 275.98C180.512 278.308 179.744 280.132 178.208 281.452C176.696 282.772 174.536 283.432 171.728 283.432ZM192.306 268.528C194.058 268.528 195.366 268.144 196.23 267.376C197.118 266.584 197.562 265.576 197.562 264.352V264.1C197.562 262.756 197.13 261.748 196.266 261.076C195.426 260.404 194.322 260.068 192.954 260.068C191.61 260.068 190.518 260.368 189.678 260.968C188.862 261.544 188.19 262.312 187.662 263.272L185.394 261.544C185.706 261.04 186.09 260.548 186.546 260.068C187.002 259.564 187.53 259.12 188.13 258.736C188.754 258.352 189.462 258.04 190.254 257.8C191.07 257.56 191.994 257.44 193.026 257.44C194.106 257.44 195.114 257.584 196.05 257.872C196.986 258.136 197.802 258.544 198.498 259.096C199.194 259.624 199.734 260.284 200.118 261.076C200.526 261.868 200.73 262.768 200.73 263.776C200.73 264.592 200.598 265.324 200.334 265.972C200.094 266.62 199.746 267.184 199.29 267.664C198.858 268.144 198.342 268.552 197.742 268.888C197.142 269.224 196.506 269.476 195.834 269.644V269.788C196.53 269.932 197.202 270.172 197.85 270.508C198.498 270.82 199.074 271.24 199.578 271.768C200.082 272.272 200.478 272.896 200.766 273.64C201.078 274.36 201.234 275.188 201.234 276.124C201.234 277.204 201.018 278.2 200.586 279.112C200.178 280 199.59 280.768 198.822 281.416C198.078 282.04 197.166 282.532 196.086 282.892C195.03 283.252 193.854 283.432 192.558 283.432C191.454 283.432 190.47 283.312 189.606 283.072C188.766 282.832 188.01 282.508 187.338 282.1C186.69 281.692 186.114 281.236 185.61 280.732C185.13 280.228 184.698 279.7 184.314 279.148L186.582 277.42C186.918 277.924 187.266 278.38 187.626 278.788C187.986 279.196 188.394 279.556 188.85 279.868C189.33 280.156 189.87 280.384 190.47 280.552C191.07 280.72 191.766 280.804 192.558 280.804C194.334 280.804 195.69 280.396 196.626 279.58C197.586 278.764 198.066 277.6 198.066 276.088V275.8C198.066 274.312 197.598 273.16 196.662 272.344C195.75 271.528 194.37 271.12 192.522 271.12H189.534V268.528H192.306Z" fill="white"/>
<rect x="2" y="242" width="18" height="58" fill="white"/>
<rect x="1.5" y="-0.5" width="19" height="242" fill="#2965F1" stroke="#264DE4"/>
<rect x="216" y="-28.8508" width="76.5785" height="158.444" transform="rotate(-45 216 -28.8508)" fill="#2965F1"/>
</g>
<rect x="3" y="1" width="298" height="298" stroke="#264DE4" stroke-width="2"/>
</g>
<g clip-path="url(#clip1_185_190)">
<path d="M229.734 62.929L217.277 202.477L161.283 218L105.444 202.498L93 62.929H229.734Z" fill="#264DE4"/>
<path d="M206.613 193.591L217.258 74.3408H161.367V206.135L206.613 193.591Z" fill="#2965F1"/>
<path d="M121.527 126.105L123.061 143.223H161.367V126.105H121.527Z" fill="#EBEBEB"/>
<path d="M161.367 91.4587H161.308H118.444L120 108.577H161.367V91.4587Z" fill="#EBEBEB"/>
<path d="M161.367 188.371V170.562L161.292 170.582L142.228 165.434L141.009 151.782H131.746H123.826L126.224 178.659L161.288 188.393L161.367 188.371Z" fill="#EBEBEB"/>
<path d="M125.179 25H145.912V33.6699H133.849V42.3398H145.912V51.0098H125.179V25Z" fill="black"/>
<path d="M150.058 25H170.791V32.5391H158.728V34.0469H170.791V51.3867H150.058V43.4707H162.121V41.9629H150.058V25Z" fill="black"/>
<path d="M174.937 25H195.67V32.5391H183.607V34.0469H195.67V51.3867H174.937V43.4707H187V41.9629H174.937V25Z" fill="black"/>
<path d="M182.386 143.223L180.399 165.423L161.308 170.576V188.385L196.4 178.659L196.657 175.767L200.68 130.702L201.097 126.105L204.188 91.4587H161.308V108.577H185.428L183.871 126.105H161.308V143.223H182.386Z" fill="white"/>
</g>
<defs>
<filter id="filter0_d_185_190" x="0" y="0" width="312" height="312" filterUnits="userSpaceOnUse" color-interpolation-filters="sRGB">
<feFlood flood-opacity="0" result="BackgroundImageFix"/>
<feColorMatrix in="SourceAlpha" type="matrix" values="0 0 0 0 0 0 0 0 0 0 0 0 0 0 0 0 0 0 127 0" result="hardAlpha"/>
<feOffset dx="4" dy="6"/>
<feGaussianBlur stdDeviation="3"/>
<feComposite in2="hardAlpha" operator="out"/>
<feColorMatrix type="matrix" values="0 0 0 0 0 0 0 0 0 0 0 0 0 0 0 0 0 0 0.25 0"/>
<feBlend mode="normal" in2="BackgroundImageFix" result="effect1_dropShadow_185_190"/>
<feBlend mode="normal" in="SourceGraphic" in2="effect1_dropShadow_185_190" result="shape"/>
</filter>
<clipPath id="clip0_185_190">
<rect x="2" width="300" height="300" fill="white"/>
</clipPath>
<clipPath id="clip1_185_190">
<rect width="136.734" height="193" fill="white" transform="translate(93 25)"/>
</clipPath>
</defs>
</svg>
