<svg width="312" height="312" viewBox="0 0 312 312" fill="none" xmlns="http://www.w3.org/2000/svg">
<g filter="url(#filter0_d_185_290)">
<g clip-path="url(#clip0_185_290)">
<rect x="2" width="300" height="300" fill="white"/>
<mask id="path-3-outside-1_185_290" maskUnits="userSpaceOnUse" x="20" y="241" width="282" height="59" fill="black">
<rect fill="white" x="20" y="241" width="282" height="59"/>
<path d="M20 242H302V300H20V242Z"/>
</mask>
<path d="M20 242H302V300H20V242Z" fill="#5FA04E"/>
<path d="M20 242V243H302V242V241H20V242Z" fill="#5FA04E" mask="url(#path-3-outside-1_185_290)"/>
<path d="M91.3172 261.832H91.0652V283H88.3292V257.872H92.6132L101.181 279.04H101.433V257.872H104.169V283H99.8852L91.3172 261.832ZM117.835 283.432C116.539 283.432 115.363 283.204 114.307 282.748C113.275 282.292 112.387 281.644 111.643 280.804C110.923 279.94 110.371 278.92 109.987 277.744C109.603 276.544 109.411 275.2 109.411 273.712C109.411 272.248 109.603 270.916 109.987 269.716C110.371 268.516 110.923 267.496 111.643 266.656C112.387 265.792 113.275 265.132 114.307 264.676C115.363 264.22 116.539 263.992 117.835 263.992C119.131 263.992 120.295 264.22 121.327 264.676C122.383 265.132 123.271 265.792 123.991 266.656C124.735 267.496 125.299 268.516 125.683 269.716C126.067 270.916 126.259 272.248 126.259 273.712C126.259 275.2 126.067 276.544 125.683 277.744C125.299 278.92 124.735 279.94 123.991 280.804C123.271 281.644 122.383 282.292 121.327 282.748C120.295 283.204 119.131 283.432 117.835 283.432ZM117.835 280.948C119.443 280.948 120.739 280.468 121.723 279.508C122.707 278.548 123.199 277.06 123.199 275.044V272.38C123.199 270.364 122.707 268.876 121.723 267.916C120.739 266.956 119.443 266.476 117.835 266.476C116.227 266.476 114.931 266.956 113.947 267.916C112.963 268.876 112.471 270.364 112.471 272.38V275.044C112.471 277.06 112.963 278.548 113.947 279.508C114.931 280.468 116.227 280.948 117.835 280.948ZM143.921 279.976H143.777C142.577 282.28 140.669 283.432 138.053 283.432C135.773 283.432 133.985 282.58 132.689 280.876C131.417 279.172 130.781 276.784 130.781 273.712C130.781 270.64 131.417 268.252 132.689 266.548C133.985 264.844 135.773 263.992 138.053 263.992C140.669 263.992 142.577 265.144 143.777 267.448H143.921V256.36H146.801V283H143.921V279.976ZM139.169 280.876C139.817 280.876 140.429 280.792 141.005 280.624C141.581 280.456 142.085 280.216 142.517 279.904C142.949 279.568 143.285 279.172 143.525 278.716C143.789 278.236 143.921 277.684 143.921 277.06V270.364C143.921 269.74 143.789 269.2 143.525 268.744C143.285 268.264 142.949 267.868 142.517 267.556C142.085 267.22 141.581 266.968 141.005 266.8C140.429 266.632 139.817 266.548 139.169 266.548C137.489 266.548 136.181 267.064 135.245 268.096C134.333 269.104 133.877 270.448 133.877 272.128V275.296C133.877 276.976 134.333 278.332 135.245 279.364C136.181 280.372 137.489 280.876 139.169 280.876ZM161.331 283.432C159.987 283.432 158.775 283.204 157.695 282.748C156.639 282.292 155.727 281.644 154.959 280.804C154.215 279.94 153.639 278.92 153.231 277.744C152.823 276.544 152.619 275.212 152.619 273.748C152.619 272.26 152.823 270.916 153.231 269.716C153.663 268.516 154.251 267.496 154.995 266.656C155.739 265.792 156.627 265.132 157.659 264.676C158.715 264.22 159.879 263.992 161.151 263.992C162.399 263.992 163.527 264.22 164.535 264.676C165.567 265.132 166.443 265.768 167.163 266.584C167.883 267.376 168.435 268.324 168.819 269.428C169.203 270.532 169.395 271.744 169.395 273.064V274.432H155.643V275.296C155.643 276.112 155.775 276.868 156.039 277.564C156.303 278.26 156.675 278.86 157.155 279.364C157.659 279.868 158.259 280.264 158.955 280.552C159.675 280.816 160.467 280.948 161.331 280.948C162.579 280.948 163.659 280.66 164.571 280.084C165.483 279.508 166.179 278.716 166.659 277.708L168.783 279.148C168.231 280.396 167.307 281.428 166.011 282.244C164.739 283.036 163.179 283.432 161.331 283.432ZM161.151 266.368C160.359 266.368 159.627 266.512 158.955 266.8C158.283 267.088 157.695 267.484 157.191 267.988C156.711 268.492 156.327 269.092 156.039 269.788C155.775 270.46 155.643 271.204 155.643 272.02V272.272H166.299V271.876C166.299 271.06 166.167 270.316 165.903 269.644C165.663 268.972 165.315 268.396 164.859 267.916C164.427 267.412 163.887 267.028 163.239 266.764C162.615 266.5 161.919 266.368 161.151 266.368ZM182.593 283.324C181.609 283.324 180.913 283.12 180.505 282.712C180.121 282.304 179.929 281.788 179.929 281.164V280.516C179.929 279.892 180.121 279.376 180.505 278.968C180.913 278.56 181.609 278.356 182.593 278.356C183.577 278.356 184.261 278.56 184.645 278.968C185.053 279.376 185.257 279.892 185.257 280.516V281.164C185.257 281.788 185.053 282.304 184.645 282.712C184.261 283.12 183.577 283.324 182.593 283.324ZM197.051 287.752H206.051V266.872H196.727V264.424H208.931V285.952C208.931 287.2 208.595 288.22 207.923 289.012C207.275 289.804 206.243 290.2 204.827 290.2H197.051V287.752ZM207.491 260.32C206.651 260.32 206.063 260.152 205.727 259.816C205.391 259.456 205.223 259.012 205.223 258.484V257.908C205.223 257.38 205.391 256.948 205.727 256.612C206.063 256.252 206.651 256.072 207.491 256.072C208.331 256.072 208.919 256.252 209.255 256.612C209.591 256.948 209.759 257.38 209.759 257.908V258.484C209.759 259.012 209.591 259.456 209.255 259.816C208.919 260.152 208.331 260.32 207.491 260.32ZM225.981 283.432C224.037 283.432 222.357 283.108 220.941 282.46C219.549 281.788 218.361 280.9 217.377 279.796L219.321 278.104C220.209 279.04 221.181 279.76 222.237 280.264C223.293 280.768 224.565 281.02 226.053 281.02C227.493 281.02 228.669 280.768 229.581 280.264C230.517 279.736 230.985 278.92 230.985 277.816C230.985 277.336 230.889 276.94 230.697 276.628C230.529 276.292 230.289 276.028 229.977 275.836C229.665 275.644 229.317 275.5 228.933 275.404C228.549 275.284 228.141 275.188 227.709 275.116L224.793 274.684C224.145 274.588 223.437 274.456 222.669 274.288C221.925 274.12 221.241 273.856 220.617 273.496C219.993 273.112 219.465 272.608 219.033 271.984C218.625 271.36 218.421 270.544 218.421 269.536C218.421 268.6 218.601 267.796 218.961 267.124C219.345 266.428 219.873 265.852 220.545 265.396C221.217 264.916 222.009 264.568 222.921 264.352C223.833 264.112 224.829 263.992 225.909 263.992C227.589 263.992 229.041 264.256 230.265 264.784C231.513 265.312 232.581 266.044 233.469 266.98L231.597 268.744C231.381 268.48 231.105 268.216 230.769 267.952C230.457 267.664 230.061 267.412 229.581 267.196C229.125 266.956 228.585 266.764 227.961 266.62C227.337 266.476 226.617 266.404 225.801 266.404C224.337 266.404 223.209 266.656 222.417 267.16C221.649 267.664 221.265 268.396 221.265 269.356C221.265 269.836 221.349 270.244 221.517 270.58C221.709 270.892 221.961 271.144 222.273 271.336C222.585 271.528 222.933 271.684 223.317 271.804C223.725 271.9 224.133 271.984 224.541 272.056L227.457 272.488C228.129 272.584 228.837 272.716 229.581 272.884C230.325 273.052 231.009 273.328 231.633 273.712C232.257 274.072 232.773 274.564 233.181 275.188C233.613 275.812 233.829 276.628 233.829 277.636C233.829 279.484 233.109 280.912 231.669 281.92C230.253 282.928 228.357 283.432 225.981 283.432Z" fill="white"/>
<rect x="2" y="242" width="18" height="58" fill="white"/>
<rect x="1.5" y="-0.5" width="19" height="242" fill="#82987C" stroke="#5FA04E"/>
<rect x="216" y="-28.8508" width="76.5785" height="158.444" transform="rotate(-45 216 -28.8508)" fill="#82987C"/>
</g>
<rect x="3" y="1" width="298" height="298" stroke="#5FA04E" stroke-width="2"/>
</g>
<path d="M160.798 214.813C158.224 214.813 155.823 214.129 153.59 212.932L130.763 199.427C127.331 197.546 129.047 196.862 130.075 196.52C134.71 194.981 135.569 194.639 140.375 191.903C140.889 191.561 141.574 191.732 142.089 192.074L159.598 202.503C160.283 202.845 161.143 202.845 161.657 202.503L230.138 163.011C230.825 162.669 231.168 161.988 231.168 161.133V82.3208C231.168 81.4658 230.825 80.7818 230.14 80.4398L161.657 41.1192C160.971 40.7772 160.11 40.7772 159.598 41.1192L91.1148 80.4398C90.4245 80.7818 90.0817 81.6368 90.0817 82.3208V161.133C90.0817 161.814 90.4269 162.669 91.1124 163.011L109.821 173.782C119.947 178.912 126.298 172.927 126.298 166.944V89.1584C126.298 88.1324 127.155 87.1064 128.357 87.1064H137.111C138.14 87.1064 139.17 87.9614 139.17 89.1584V166.944C139.17 180.451 131.791 188.315 118.916 188.315C114.97 188.315 111.88 188.315 103.128 184.04L85.1046 173.782C82.9132 172.514 81.0941 170.694 79.8295 168.504C78.565 166.314 77.8994 163.831 77.8995 161.304V82.4918C77.8992 79.9637 78.565 77.4799 79.83 75.2894C81.095 73.099 82.9147 71.2787 85.107 70.0111L153.588 30.5196C157.882 28.1256 163.716 28.1256 168.007 30.5196L236.488 70.0111C238.681 71.2784 240.501 73.0985 241.766 75.289C243.032 77.4795 243.698 79.9634 243.698 82.4918V161.304C243.698 163.832 243.031 166.315 241.766 168.505C240.5 170.695 238.68 172.515 236.488 173.782L168.007 213.274C165.948 214.129 163.373 214.813 160.798 214.813Z" fill="#5FA04E"/>
<path d="M182.082 160.62C152.043 160.62 145.866 146.942 145.866 135.317C145.866 134.291 146.723 133.265 147.925 133.265H156.851C157.882 133.265 158.739 133.949 158.739 134.975C160.112 144.035 164.059 148.481 182.253 148.481C196.671 148.481 202.848 145.232 202.848 137.54C202.848 133.096 201.134 129.845 178.647 127.624C159.938 125.743 148.27 121.639 148.27 106.767C148.27 92.9205 159.941 84.7148 179.507 84.7148C201.477 84.7148 212.288 92.2365 213.664 108.648C213.664 109.161 213.49 109.674 213.147 110.187C212.804 110.529 212.29 110.871 211.774 110.871H202.676C202.236 110.856 201.813 110.698 201.472 110.42C201.131 110.141 200.891 109.759 200.789 109.332C198.73 99.9267 193.41 96.8511 179.335 96.8511C163.544 96.8511 161.657 102.323 161.657 106.425C161.657 111.384 163.887 112.923 185.172 115.656C206.282 118.392 216.234 122.325 216.234 137.027C216.234 152.072 203.707 160.62 182.082 160.62Z" fill="#5FA04E"/>
<defs>
<filter id="filter0_d_185_290" x="0" y="0" width="312" height="312" filterUnits="userSpaceOnUse" color-interpolation-filters="sRGB">
<feFlood flood-opacity="0" result="BackgroundImageFix"/>
<feColorMatrix in="SourceAlpha" type="matrix" values="0 0 0 0 0 0 0 0 0 0 0 0 0 0 0 0 0 0 127 0" result="hardAlpha"/>
<feOffset dx="4" dy="6"/>
<feGaussianBlur stdDeviation="3"/>
<feComposite in2="hardAlpha" operator="out"/>
<feColorMatrix type="matrix" values="0 0 0 0 0 0 0 0 0 0 0 0 0 0 0 0 0 0 0.25 0"/>
<feBlend mode="normal" in2="BackgroundImageFix" result="effect1_dropShadow_185_290"/>
<feBlend mode="normal" in="SourceGraphic" in2="effect1_dropShadow_185_290" result="shape"/>
</filter>
<clipPath id="clip0_185_290">
<rect x="2" width="300" height="300" fill="white"/>
</clipPath>
</defs>
</svg>
