<svg width="312" height="312" viewBox="0 0 312 312" fill="none" xmlns="http://www.w3.org/2000/svg">
<g filter="url(#filter0_d_185_233)">
<g clip-path="url(#clip0_185_233)">
<rect x="2" width="300" height="300" fill="white"/>
<mask id="path-3-outside-1_185_233" maskUnits="userSpaceOnUse" x="20" y="241" width="282" height="59" fill="black">
<rect fill="white" x="20" y="241" width="282" height="59"/>
<path d="M20 242H302V300H20V242Z"/>
</mask>
<path d="M20 242H302V300H20V242Z" fill="#21BAE4"/>
<path d="M20 242V243H302V242V241H20V242Z" fill="#21BAE4" mask="url(#path-3-outside-1_185_233)"/>
<path d="M113.299 283H110.275V257.872H119.419C121.747 257.872 123.523 258.508 124.747 259.78C125.971 261.052 126.583 262.828 126.583 265.108C126.583 267.148 126.055 268.78 124.999 270.004C123.943 271.228 122.407 271.936 120.391 272.128L126.799 283H123.415L117.295 272.272H113.299V283ZM119.347 269.716C120.619 269.716 121.603 269.404 122.299 268.78C123.019 268.132 123.379 267.22 123.379 266.044V264.172C123.379 262.996 123.019 262.096 122.299 261.472C121.603 260.824 120.619 260.5 119.347 260.5H113.299V269.716H119.347ZM139.745 283.432C138.401 283.432 137.189 283.204 136.109 282.748C135.053 282.292 134.141 281.644 133.373 280.804C132.629 279.94 132.053 278.92 131.645 277.744C131.237 276.544 131.033 275.212 131.033 273.748C131.033 272.26 131.237 270.916 131.645 269.716C132.077 268.516 132.665 267.496 133.409 266.656C134.153 265.792 135.041 265.132 136.073 264.676C137.129 264.22 138.293 263.992 139.565 263.992C140.813 263.992 141.941 264.22 142.949 264.676C143.981 265.132 144.857 265.768 145.577 266.584C146.297 267.376 146.849 268.324 147.233 269.428C147.617 270.532 147.809 271.744 147.809 273.064V274.432H134.057V275.296C134.057 276.112 134.189 276.868 134.453 277.564C134.717 278.26 135.089 278.86 135.569 279.364C136.073 279.868 136.673 280.264 137.369 280.552C138.089 280.816 138.881 280.948 139.745 280.948C140.993 280.948 142.073 280.66 142.985 280.084C143.897 279.508 144.593 278.716 145.073 277.708L147.197 279.148C146.645 280.396 145.721 281.428 144.425 282.244C143.153 283.036 141.593 283.432 139.745 283.432ZM139.565 266.368C138.773 266.368 138.041 266.512 137.369 266.8C136.697 267.088 136.109 267.484 135.605 267.988C135.125 268.492 134.741 269.092 134.453 269.788C134.189 270.46 134.057 271.204 134.057 272.02V272.272H144.713V271.876C144.713 271.06 144.581 270.316 144.317 269.644C144.077 268.972 143.729 268.396 143.273 267.916C142.841 267.412 142.301 267.028 141.653 266.764C141.029 266.5 140.333 266.368 139.565 266.368ZM168.027 283C166.899 283 166.095 282.712 165.615 282.136C165.135 281.56 164.835 280.84 164.715 279.976H164.535C164.127 281.056 163.467 281.908 162.555 282.532C161.667 283.132 160.467 283.432 158.955 283.432C157.011 283.432 155.463 282.928 154.311 281.92C153.159 280.912 152.583 279.532 152.583 277.78C152.583 276.052 153.207 274.72 154.455 273.784C155.727 272.848 157.767 272.38 160.575 272.38H164.535V270.544C164.535 269.176 164.151 268.156 163.383 267.484C162.615 266.788 161.523 266.44 160.107 266.44C158.859 266.44 157.839 266.692 157.047 267.196C156.255 267.676 155.619 268.336 155.139 269.176L153.195 267.736C153.435 267.256 153.759 266.788 154.167 266.332C154.575 265.876 155.079 265.48 155.679 265.144C156.279 264.784 156.963 264.508 157.731 264.316C158.499 264.1 159.351 263.992 160.287 263.992C162.471 263.992 164.199 264.544 165.471 265.648C166.767 266.752 167.415 268.288 167.415 270.256V280.48H170.007V283H168.027ZM159.459 281.02C160.203 281.02 160.875 280.936 161.475 280.768C162.099 280.576 162.639 280.336 163.095 280.048C163.551 279.736 163.899 279.376 164.139 278.968C164.403 278.536 164.535 278.08 164.535 277.6V274.54H160.575C158.847 274.54 157.587 274.78 156.795 275.26C156.003 275.74 155.607 276.436 155.607 277.348V278.104C155.607 279.064 155.943 279.796 156.615 280.3C157.311 280.78 158.259 281.02 159.459 281.02ZM183.241 283.432C181.897 283.432 180.697 283.204 179.641 282.748C178.609 282.268 177.733 281.608 177.013 280.768C176.293 279.928 175.741 278.908 175.357 277.708C174.997 276.508 174.817 275.176 174.817 273.712C174.817 272.248 175.009 270.916 175.393 269.716C175.777 268.516 176.329 267.496 177.049 266.656C177.769 265.792 178.645 265.132 179.677 264.676C180.709 264.22 181.885 263.992 183.205 263.992C185.005 263.992 186.469 264.388 187.597 265.18C188.725 265.972 189.553 267.004 190.081 268.276L187.777 269.5C187.441 268.54 186.877 267.796 186.085 267.268C185.317 266.74 184.357 266.476 183.205 266.476C182.365 266.476 181.609 266.62 180.937 266.908C180.289 267.172 179.737 267.556 179.281 268.06C178.825 268.564 178.477 269.164 178.237 269.86C178.021 270.556 177.913 271.312 177.913 272.128V275.296C177.913 276.112 178.021 276.868 178.237 277.564C178.477 278.26 178.825 278.86 179.281 279.364C179.737 279.868 180.301 280.264 180.973 280.552C181.645 280.816 182.413 280.948 183.277 280.948C184.525 280.948 185.557 280.66 186.373 280.084C187.189 279.508 187.837 278.716 188.317 277.708L190.369 279.112C189.817 280.36 188.953 281.392 187.777 282.208C186.625 283.024 185.113 283.432 183.241 283.432ZM205.079 283C203.663 283 202.619 282.604 201.947 281.812C201.299 281.02 200.975 280 200.975 278.752V266.872H194.783V264.424H199.391C200.015 264.424 200.447 264.304 200.687 264.064C200.951 263.8 201.083 263.356 201.083 262.732V257.872H203.855V264.424H212.315V266.872H203.855V280.552H212.315V283H205.079Z" fill="white"/>
<rect x="2" y="242" width="18" height="58" fill="white"/>
<rect x="1.5" y="-0.5" width="19" height="242" fill="#61DAFB" stroke="#21BAE4"/>
<rect x="216" y="-28.8508" width="76.5785" height="158.444" transform="rotate(-45 216 -28.8508)" fill="#61DAFB"/>
</g>
<rect x="3" y="1" width="298" height="298" stroke="#21BAE4" stroke-width="2"/>
</g>
<g clip-path="url(#clip1_185_233)">
<path d="M220.924 91.4828C218.946 90.8055 216.951 90.1766 214.94 89.5961C215.274 88.2415 215.584 86.8815 215.87 85.5161C220.399 63.5844 217.439 45.9099 207.314 40.0884C197.61 34.5087 181.743 40.3302 165.715 54.2392C164.135 55.6099 162.593 57.021 161.089 58.4723C160.081 57.5047 159.056 56.5587 158.016 55.6341C141.211 40.7737 124.366 34.5167 114.257 40.3383C104.577 45.9341 101.706 62.5523 105.766 83.3391C106.181 85.3979 106.639 87.4459 107.141 89.4832C104.771 90.1605 102.467 90.8781 100.267 91.6441C80.5752 98.4978 68 109.222 68 120.349C68 131.839 81.5052 143.369 102.014 150.344C103.674 150.914 105.351 151.44 107.044 151.924C106.494 154.112 106.009 156.316 105.588 158.536C101.69 178.96 104.731 195.183 114.403 200.747C124.382 206.487 141.138 200.585 157.466 186.362C158.76 185.244 160.054 184.056 161.348 182.798C162.976 184.373 164.647 185.9 166.362 187.378C182.18 200.94 197.788 206.407 207.443 200.843C217.431 195.078 220.674 177.654 216.46 156.456C216.137 154.843 215.765 153.193 215.344 151.505C216.52 151.161 217.673 150.803 218.806 150.432C240.131 143.385 254 131.992 254 120.349C254 109.173 241.02 98.3768 220.924 91.4828ZM170.947 60.222C184.679 48.3047 197.513 43.6119 203.376 46.9662C209.603 50.5463 212.013 64.9873 208.098 83.9277C207.845 85.164 207.567 86.3923 207.265 87.6125C199.07 85.7602 190.76 84.4511 182.39 83.6938C177.594 76.8255 172.339 70.2876 166.661 64.1246C168.052 62.7915 169.475 61.4906 170.931 60.222H170.947ZM122.91 129.839C124.598 133.086 126.358 136.284 128.191 139.434C130.062 142.66 132.008 145.839 134.03 148.973C128.272 148.352 122.55 147.437 116.886 146.232C118.535 140.934 120.557 135.427 122.919 129.847L122.91 129.839ZM122.91 111.213C120.598 105.747 118.624 100.368 117.007 95.1677C122.304 93.9824 127.965 93.0148 133.86 92.2811C131.887 95.3451 129.987 98.4628 128.159 101.634C126.326 104.784 124.582 107.977 122.91 111.213ZM127.132 120.534C129.579 115.455 132.221 110.472 135.057 105.585C137.871 100.694 140.874 95.9229 144.066 91.2732C149.597 90.8539 155.266 90.6281 161 90.6281C166.758 90.6281 172.435 90.8539 177.966 91.2732C181.12 95.9229 184.107 100.68 186.927 105.545C189.763 110.415 192.437 115.374 194.949 120.421C192.469 125.517 189.806 130.522 186.959 135.435C184.139 140.316 181.163 145.1 178.031 149.787C172.516 150.191 166.815 150.384 161 150.384C155.21 150.384 149.581 150.207 144.163 149.852C140.95 145.175 137.92 140.383 135.073 135.475C132.237 130.584 129.59 125.601 127.132 120.526V120.534ZM193.849 139.402C195.715 136.161 197.51 132.882 199.235 129.565C201.598 134.894 203.682 140.341 205.478 145.885C199.751 147.166 193.961 148.149 188.132 148.828C190.094 145.721 191.997 142.576 193.841 139.394L193.849 139.402ZM199.154 111.221C197.44 107.975 195.661 104.76 193.817 101.578C191.995 98.4494 190.108 95.3585 188.156 92.3053C194.084 93.0552 199.769 94.0469 205.114 95.2645C203.398 100.683 201.409 106.003 199.154 111.221ZM161.081 69.8091C164.951 74.0142 168.606 78.4115 172.031 82.9843C164.709 82.6349 157.382 82.6349 150.05 82.9843C153.665 78.227 157.361 73.8084 161.081 69.8091ZM118.252 47.192C124.479 43.6039 138.227 48.724 152.735 61.5686C153.665 62.391 154.595 63.2457 155.525 64.1326C149.814 70.2966 144.519 76.8313 139.675 83.6938C131.33 84.4408 123.042 85.7255 114.864 87.54C114.389 85.6478 113.964 83.7395 113.586 81.8151V81.8313C110.085 64.0117 112.405 50.5785 118.252 47.2081V47.192ZM109.163 144.296C107.626 143.856 106.1 143.38 104.585 142.869C96.7039 140.397 89.3461 136.5 82.88 131.371C81.0296 130.103 79.4599 128.47 78.2678 126.572C77.0757 124.675 76.2867 122.554 75.9495 120.341C75.9495 113.592 86.042 104.981 102.879 99.1348C104.998 98.393 107.133 97.721 109.284 97.119C111.782 105.115 114.808 112.937 118.341 120.534C114.763 128.242 111.7 136.178 109.171 144.288L109.163 144.296ZM152.234 180.419C146.15 185.983 139.091 190.384 131.41 193.401C129.387 194.368 127.186 194.912 124.944 194.997C122.702 195.083 120.465 194.71 118.374 193.901C112.511 190.514 110.068 177.5 113.392 160.036C113.791 157.966 114.244 155.913 114.751 153.875C123.016 155.644 131.391 156.85 139.82 157.488C144.704 164.387 150.036 170.959 155.784 177.162C154.63 178.275 153.449 179.358 152.242 180.411L152.234 180.419ZM161.307 171.453C157.539 167.405 153.786 162.922 150.115 158.101C153.673 158.24 157.302 158.31 161 158.31C164.79 158.31 168.532 158.23 172.225 158.068C168.817 162.713 165.173 167.18 161.307 171.453ZM209.562 182.475C209.391 184.708 208.762 186.882 207.715 188.862C206.667 190.842 205.224 192.588 203.473 193.99C197.61 197.376 185.075 192.974 171.553 181.379C170.006 180.056 168.448 178.643 166.879 177.138C172.516 170.916 177.725 164.321 182.471 157.399C190.947 156.686 199.364 155.393 207.662 153.529C208.039 155.055 208.373 156.55 208.665 158.012C210.464 166.046 210.766 174.341 209.554 182.483L209.562 182.475ZM216.307 142.91C215.28 143.248 214.236 143.571 213.169 143.877C210.57 135.844 207.425 127.996 203.756 120.389C207.289 112.885 210.315 105.154 212.813 97.248C214.705 97.7882 216.557 98.3768 218.337 98.9816C235.562 104.884 246.059 113.624 246.059 120.349C246.059 127.525 234.713 136.83 216.299 142.91H216.307Z" fill="#61DAFB"/>
<path d="M161 103.787C164.286 103.787 167.498 104.759 170.23 106.579C172.962 108.4 175.091 110.987 176.348 114.015C177.604 117.042 177.932 120.373 177.29 123.586C176.648 126.799 175.064 129.75 172.74 132.065C170.415 134.381 167.454 135.957 164.231 136.594C161.007 137.231 157.667 136.901 154.632 135.645C151.597 134.389 149.004 132.264 147.181 129.538C145.358 126.813 144.386 123.609 144.389 120.333C144.396 115.944 146.149 111.738 149.263 108.637C152.377 105.537 156.599 103.787 161 103.787Z" fill="#61DAFB"/>
</g>
<defs>
<filter id="filter0_d_185_233" x="0" y="0" width="312" height="312" filterUnits="userSpaceOnUse" color-interpolation-filters="sRGB">
<feFlood flood-opacity="0" result="BackgroundImageFix"/>
<feColorMatrix in="SourceAlpha" type="matrix" values="0 0 0 0 0 0 0 0 0 0 0 0 0 0 0 0 0 0 127 0" result="hardAlpha"/>
<feOffset dx="4" dy="6"/>
<feGaussianBlur stdDeviation="3"/>
<feComposite in2="hardAlpha" operator="out"/>
<feColorMatrix type="matrix" values="0 0 0 0 0 0 0 0 0 0 0 0 0 0 0 0 0 0 0.25 0"/>
<feBlend mode="normal" in2="BackgroundImageFix" result="effect1_dropShadow_185_233"/>
<feBlend mode="normal" in="SourceGraphic" in2="effect1_dropShadow_185_233" result="shape"/>
</filter>
<clipPath id="clip0_185_233">
<rect x="2" width="300" height="300" fill="white"/>
</clipPath>
<clipPath id="clip1_185_233">
<rect width="186" height="165" fill="white" transform="translate(68 38)"/>
</clipPath>
</defs>
</svg>
