<svg width="312" height="312" viewBox="0 0 312 312" fill="none" xmlns="http://www.w3.org/2000/svg">
<g filter="url(#filter0_d_185_325)">
<g clip-path="url(#clip0_185_325)">
<rect x="2" width="300" height="300" fill="white"/>
<mask id="path-3-outside-1_185_325" maskUnits="userSpaceOnUse" x="20" y="241" width="282" height="59" fill="black">
<rect fill="white" x="20" y="241" width="282" height="59"/>
<path d="M20 242H302V300H20V242Z"/>
</mask>
<path d="M20 242H302V300H20V242Z" fill="#6D7275"/>
<path d="M20 242V243H302V242V241H20V242Z" fill="#6D7275" mask="url(#path-3-outside-1_185_325)"/>
<path d="M53.9053 283.432C50.8333 283.432 48.5413 282.316 47.0293 280.084C45.5413 277.852 44.7973 274.636 44.7973 270.436C44.7973 266.236 45.5413 263.02 47.0293 260.788C48.5413 258.556 50.8333 257.44 53.9053 257.44C55.0573 257.44 56.0533 257.596 56.8933 257.908C57.7333 258.22 58.4533 258.64 59.0533 259.168C59.6533 259.696 60.1573 260.296 60.5653 260.968C60.9733 261.616 61.3333 262.276 61.6453 262.948L59.0533 264.136C58.8373 263.584 58.5853 263.068 58.2973 262.588C58.0093 262.084 57.6613 261.652 57.2533 261.292C56.8693 260.908 56.4013 260.608 55.8493 260.392C55.3213 260.176 54.6733 260.068 53.9053 260.068C51.9133 260.068 50.4253 260.824 49.4413 262.336C48.4813 263.848 48.0013 265.864 48.0013 268.384V272.488C48.0013 275.008 48.4813 277.024 49.4413 278.536C50.4253 280.048 51.9133 280.804 53.9053 280.804C54.6733 280.804 55.3213 280.696 55.8493 280.48C56.4013 280.264 56.8693 279.976 57.2533 279.616C57.6613 279.232 58.0093 278.8 58.2973 278.32C58.5853 277.816 58.8373 277.288 59.0533 276.736L61.6453 277.924C61.3333 278.62 60.9733 279.292 60.5653 279.94C60.1573 280.588 59.6533 281.176 59.0533 281.704C58.4533 282.232 57.7333 282.652 56.8933 282.964C56.0533 283.276 55.0573 283.432 53.9053 283.432ZM66.7433 280.552H73.2233V258.808H66.7433V256.36H76.1033V280.552H82.5833V283H66.7433V280.552ZM97.4012 260.32C96.5612 260.32 95.9732 260.152 95.6372 259.816C95.3012 259.456 95.1332 259.012 95.1332 258.484V257.908C95.1332 257.38 95.3012 256.948 95.6372 256.612C95.9732 256.252 96.5612 256.072 97.4012 256.072C98.2412 256.072 98.8292 256.252 99.1652 256.612C99.5012 256.948 99.6692 257.38 99.6692 257.908V258.484C99.6692 259.012 99.5012 259.456 99.1652 259.816C98.8292 260.152 98.2412 260.32 97.4012 260.32ZM89.2652 280.552H95.9612V266.872H89.2652V264.424H98.8412V280.552H105.105V283H89.2652V280.552ZM110.455 264.424H113.335V267.448H113.479C114.679 265.144 116.587 263.992 119.203 263.992C121.483 263.992 123.259 264.844 124.531 266.548C125.827 268.252 126.475 270.64 126.475 273.712C126.475 276.784 125.827 279.172 124.531 280.876C123.259 282.58 121.483 283.432 119.203 283.432C116.587 283.432 114.679 282.28 113.479 279.976H113.335V290.2H110.455V264.424ZM118.087 280.876C119.767 280.876 121.063 280.372 121.975 279.364C122.911 278.332 123.379 276.976 123.379 275.296V272.128C123.379 270.448 122.911 269.104 121.975 268.096C121.063 267.064 119.767 266.548 118.087 266.548C117.439 266.548 116.827 266.632 116.251 266.8C115.675 266.968 115.171 267.22 114.739 267.556C114.307 267.868 113.959 268.264 113.695 268.744C113.455 269.2 113.335 269.74 113.335 270.364V277.06C113.335 277.684 113.455 278.236 113.695 278.716C113.959 279.172 114.307 279.568 114.739 279.904C115.171 280.216 115.675 280.456 116.251 280.624C116.827 280.792 117.439 280.876 118.087 280.876ZM160.935 283.432C158.679 283.432 156.831 283.024 155.391 282.208C153.951 281.368 152.763 280.3 151.827 279.004L154.023 277.204C155.007 278.428 156.039 279.34 157.119 279.94C158.223 280.54 159.531 280.84 161.043 280.84C162.867 280.84 164.259 280.42 165.219 279.58C166.179 278.74 166.659 277.564 166.659 276.052C166.659 274.828 166.311 273.88 165.615 273.208C164.919 272.512 163.707 272.02 161.979 271.732L159.171 271.264C157.947 271.048 156.915 270.724 156.075 270.292C155.259 269.86 154.599 269.344 154.095 268.744C153.591 268.12 153.231 267.448 153.015 266.728C152.799 265.984 152.691 265.216 152.691 264.424C152.691 262.12 153.447 260.38 154.959 259.204C156.471 258.028 158.511 257.44 161.079 257.44C163.095 257.44 164.787 257.776 166.155 258.448C167.547 259.12 168.663 260.068 169.503 261.292L167.379 263.128C166.683 262.216 165.843 261.472 164.859 260.896C163.875 260.32 162.603 260.032 161.043 260.032C159.339 260.032 158.031 260.392 157.119 261.112C156.207 261.832 155.751 262.912 155.751 264.352C155.751 265.48 156.087 266.404 156.759 267.124C157.455 267.82 158.691 268.324 160.467 268.636L163.167 269.104C164.391 269.32 165.423 269.644 166.263 270.076C167.103 270.508 167.775 271.024 168.279 271.624C168.807 272.224 169.179 272.896 169.395 273.64C169.611 274.384 169.719 275.164 169.719 275.98C169.719 278.308 168.951 280.132 167.415 281.452C165.903 282.772 163.743 283.432 160.935 283.432ZM183.493 283C182.077 283 181.033 282.604 180.361 281.812C179.713 281.02 179.389 280 179.389 278.752V266.872H173.197V264.424H177.805C178.429 264.424 178.861 264.304 179.101 264.064C179.365 263.8 179.497 263.356 179.497 262.732V257.872H182.269V264.424H190.729V266.872H182.269V280.552H190.729V283H183.493ZM208.571 279.976H208.427C208.235 280.432 207.995 280.876 207.707 281.308C207.419 281.716 207.059 282.076 206.627 282.388C206.219 282.7 205.727 282.952 205.151 283.144C204.575 283.336 203.903 283.432 203.135 283.432C201.191 283.432 199.631 282.82 198.455 281.596C197.279 280.348 196.691 278.596 196.691 276.34V264.424H199.571V275.836C199.571 277.54 199.943 278.812 200.687 279.652C201.431 280.468 202.523 280.876 203.963 280.876C204.539 280.876 205.103 280.804 205.655 280.66C206.207 280.516 206.699 280.3 207.131 280.012C207.563 279.724 207.911 279.364 208.175 278.932C208.439 278.476 208.571 277.936 208.571 277.312V264.424H211.451V283H208.571V279.976ZM230.265 279.976H230.121C228.921 282.28 227.013 283.432 224.397 283.432C222.117 283.432 220.329 282.58 219.033 280.876C217.761 279.172 217.125 276.784 217.125 273.712C217.125 270.64 217.761 268.252 219.033 266.548C220.329 264.844 222.117 263.992 224.397 263.992C227.013 263.992 228.921 265.144 230.121 267.448H230.265V256.36H233.145V283H230.265V279.976ZM225.513 280.876C226.161 280.876 226.773 280.792 227.349 280.624C227.925 280.456 228.429 280.216 228.861 279.904C229.293 279.568 229.629 279.172 229.869 278.716C230.133 278.236 230.265 277.684 230.265 277.06V270.364C230.265 269.74 230.133 269.2 229.869 268.744C229.629 268.264 229.293 267.868 228.861 267.556C228.429 267.22 227.925 266.968 227.349 266.8C226.773 266.632 226.161 266.548 225.513 266.548C223.833 266.548 222.525 267.064 221.589 268.096C220.677 269.104 220.221 270.448 220.221 272.128V275.296C220.221 276.976 220.677 278.332 221.589 279.364C222.525 280.372 223.833 280.876 225.513 280.876ZM248.503 260.32C247.663 260.32 247.075 260.152 246.739 259.816C246.403 259.456 246.235 259.012 246.235 258.484V257.908C246.235 257.38 246.403 256.948 246.739 256.612C247.075 256.252 247.663 256.072 248.503 256.072C249.343 256.072 249.931 256.252 250.267 256.612C250.603 256.948 250.771 257.38 250.771 257.908V258.484C250.771 259.012 250.603 259.456 250.267 259.816C249.931 260.152 249.343 260.32 248.503 260.32ZM240.367 280.552H247.063V266.872H240.367V264.424H249.943V280.552H256.207V283H240.367V280.552ZM268.937 283.432C267.641 283.432 266.465 283.204 265.409 282.748C264.377 282.292 263.489 281.644 262.745 280.804C262.025 279.94 261.473 278.92 261.089 277.744C260.705 276.544 260.513 275.2 260.513 273.712C260.513 272.248 260.705 270.916 261.089 269.716C261.473 268.516 262.025 267.496 262.745 266.656C263.489 265.792 264.377 265.132 265.409 264.676C266.465 264.22 267.641 263.992 268.937 263.992C270.233 263.992 271.397 264.22 272.429 264.676C273.485 265.132 274.373 265.792 275.093 266.656C275.837 267.496 276.401 268.516 276.785 269.716C277.169 270.916 277.361 272.248 277.361 273.712C277.361 275.2 277.169 276.544 276.785 277.744C276.401 278.92 275.837 279.94 275.093 280.804C274.373 281.644 273.485 282.292 272.429 282.748C271.397 283.204 270.233 283.432 268.937 283.432ZM268.937 280.948C270.545 280.948 271.841 280.468 272.825 279.508C273.809 278.548 274.301 277.06 274.301 275.044V272.38C274.301 270.364 273.809 268.876 272.825 267.916C271.841 266.956 270.545 266.476 268.937 266.476C267.329 266.476 266.033 266.956 265.049 267.916C264.065 268.876 263.573 270.364 263.573 272.38V275.044C263.573 277.06 264.065 278.548 265.049 279.508C266.033 280.468 267.329 280.948 268.937 280.948Z" fill="white"/>
<rect x="2" y="242" width="18" height="58" fill="white"/>
<rect x="1.5" y="-0.5" width="19" height="242" fill="#DDDDDD" stroke="#6D7275"/>
<rect x="216" y="-28.8508" width="76.5785" height="158.444" transform="rotate(-45 216 -28.8508)" fill="#DDDDDD"/>
</g>
<rect x="3" y="1" width="298" height="298" stroke="#6D7275" stroke-width="2"/>
</g>
<path d="M113 37C93.152 37 77 53.148 77 73V169C77 188.852 93.152 205 113 205H209C228.848 205 245 188.852 245 169V73C245 53.148 228.848 37 209 37H113ZM113 45H209C224.44 45 237 57.564 237 73V169C237 184.436 224.44 197 209 197H113C97.56 197 85 184.436 85 169V73C85 57.564 97.56 45 113 45ZM169.18 70.1016C164.164 70.1016 160.511 70.5733 157.531 71.2812C154.587 71.9893 152.33 72.9158 150.094 73.8438C143.186 76.6997 138.311 78.6968 134.875 80.1328L126.641 83.5156C111.457 89.7516 108.273 99.9312 108.273 107.367C108.273 119.439 118.275 130.094 133.727 130.094C137.547 130.094 143.238 128.984 148.094 126.984L156.672 123.438L171.383 117.367C174.983 115.891 177.359 114.42 177.359 110.312C177.359 102.82 169.72 100.199 164.812 102.219L141.18 112C137.852 113.364 135.433 113.727 134.633 113.727C126.797 113.727 126.453 107.439 126.453 107.367C126.453 105.927 126.455 103.233 133.547 100.305L157.367 90.5469C157.367 90.5469 165.092 87.3672 171 87.3672C186.452 87.3672 195.547 99.1808 195.547 109.633C195.547 121.977 187.6 126.091 185.164 127.055L146.859 142.812C144.823 143.649 144.023 146.12 145.203 147.992L156.344 165.594C158.072 168.338 160.167 171.906 165.383 171.906C168.543 171.906 174.633 170.249 174.633 163.305C174.633 161.397 174.213 159.778 173.141 158.07L170.141 153.469C169.997 153.217 170.103 152.905 170.359 152.797L191.758 143.977C192.906 143.541 196.286 142.089 200.086 139.109C206.358 134.161 213.727 125.085 213.727 109.633C213.727 91.9088 198.272 70.0976 169.18 70.1016Z" fill="black"/>
<defs>
<filter id="filter0_d_185_325" x="0" y="0" width="312" height="312" filterUnits="userSpaceOnUse" color-interpolation-filters="sRGB">
<feFlood flood-opacity="0" result="BackgroundImageFix"/>
<feColorMatrix in="SourceAlpha" type="matrix" values="0 0 0 0 0 0 0 0 0 0 0 0 0 0 0 0 0 0 127 0" result="hardAlpha"/>
<feOffset dx="4" dy="6"/>
<feGaussianBlur stdDeviation="3"/>
<feComposite in2="hardAlpha" operator="out"/>
<feColorMatrix type="matrix" values="0 0 0 0 0 0 0 0 0 0 0 0 0 0 0 0 0 0 0.25 0"/>
<feBlend mode="normal" in2="BackgroundImageFix" result="effect1_dropShadow_185_325"/>
<feBlend mode="normal" in="SourceGraphic" in2="effect1_dropShadow_185_325" result="shape"/>
</filter>
<clipPath id="clip0_185_325">
<rect x="2" width="300" height="300" fill="white"/>
</clipPath>
</defs>
</svg>
