<svg width="312" height="312" viewBox="0 0 312 312" fill="none" xmlns="http://www.w3.org/2000/svg">
<g filter="url(#filter0_d_185_196)">
<g clip-path="url(#clip0_185_196)">
<rect x="2" width="300" height="300" fill="white"/>
<mask id="path-3-outside-1_185_196" maskUnits="userSpaceOnUse" x="20" y="241" width="282" height="59" fill="black">
<rect fill="white" x="20" y="241" width="282" height="59"/>
<path d="M20 242H302V300H20V242Z"/>
</mask>
<path d="M20 242H302V300H20V242Z" fill="#326C9B"/>
<path d="M20 242V243H302V242V241H20V242Z" fill="#326C9B" mask="url(#path-3-outside-1_185_196)"/>
<path d="M99.4822 283V257.872H108.626C110.954 257.872 112.73 258.508 113.954 259.78C115.178 261.052 115.79 262.828 115.79 265.108C115.79 267.388 115.178 269.164 113.954 270.436C112.73 271.708 110.954 272.344 108.626 272.344H102.506V283H99.4822ZM102.506 269.716H108.554C109.826 269.716 110.81 269.404 111.506 268.78C112.226 268.132 112.586 267.22 112.586 266.044V264.172C112.586 262.996 112.226 262.096 111.506 261.472C110.81 260.824 109.826 260.5 108.554 260.5H102.506V269.716ZM134.64 264.424H137.52L128.304 287.068C128.088 287.596 127.848 288.052 127.584 288.436C127.32 288.844 127.008 289.168 126.648 289.408C126.288 289.672 125.856 289.864 125.352 289.984C124.848 290.128 124.248 290.2 123.552 290.2H120.816V287.752H125.136L127.224 282.64L119.736 264.424H122.688L125.82 272.2L128.592 279.256H128.736L131.508 272.2L134.64 264.424ZM151.114 283C149.698 283 148.654 282.604 147.982 281.812C147.334 281.02 147.01 280 147.01 278.752V266.872H140.818V264.424H145.426C146.05 264.424 146.482 264.304 146.722 264.064C146.986 263.8 147.118 263.356 147.118 262.732V257.872H149.89V264.424H158.35V266.872H149.89V280.552H158.35V283H151.114ZM164.528 256.36H167.408V267.448H167.552C167.744 266.992 167.984 266.56 168.272 266.152C168.56 265.72 168.908 265.348 169.316 265.036C169.748 264.724 170.252 264.472 170.828 264.28C171.404 264.088 172.076 263.992 172.844 263.992C174.788 263.992 176.348 264.616 177.524 265.864C178.7 267.088 179.288 268.828 179.288 271.084V283H176.408V271.588C176.408 269.884 176.036 268.624 175.292 267.808C174.548 266.968 173.456 266.548 172.016 266.548C171.44 266.548 170.876 266.62 170.324 266.764C169.772 266.908 169.28 267.124 168.848 267.412C168.416 267.7 168.068 268.072 167.804 268.528C167.54 268.984 167.408 269.512 167.408 270.112V283H164.528V256.36ZM193.386 283.432C192.09 283.432 190.914 283.204 189.858 282.748C188.826 282.292 187.938 281.644 187.194 280.804C186.474 279.94 185.922 278.92 185.538 277.744C185.154 276.544 184.962 275.2 184.962 273.712C184.962 272.248 185.154 270.916 185.538 269.716C185.922 268.516 186.474 267.496 187.194 266.656C187.938 265.792 188.826 265.132 189.858 264.676C190.914 264.22 192.09 263.992 193.386 263.992C194.682 263.992 195.846 264.22 196.878 264.676C197.934 265.132 198.822 265.792 199.542 266.656C200.286 267.496 200.85 268.516 201.234 269.716C201.618 270.916 201.81 272.248 201.81 273.712C201.81 275.2 201.618 276.544 201.234 277.744C200.85 278.92 200.286 279.94 199.542 280.804C198.822 281.644 197.934 282.292 196.878 282.748C195.846 283.204 194.682 283.432 193.386 283.432ZM193.386 280.948C194.994 280.948 196.29 280.468 197.274 279.508C198.258 278.548 198.75 277.06 198.75 275.044V272.38C198.75 270.364 198.258 268.876 197.274 267.916C196.29 266.956 194.994 266.476 193.386 266.476C191.778 266.476 190.482 266.956 189.498 267.916C188.514 268.876 188.022 270.364 188.022 272.38V275.044C188.022 277.06 188.514 278.548 189.498 279.508C190.482 280.468 191.778 280.948 193.386 280.948ZM207.7 283V264.424H210.58V267.448H210.724C210.916 266.992 211.156 266.56 211.444 266.152C211.732 265.72 212.08 265.348 212.488 265.036C212.92 264.724 213.424 264.472 214 264.28C214.576 264.088 215.248 263.992 216.016 263.992C217.96 263.992 219.52 264.616 220.696 265.864C221.872 267.088 222.46 268.828 222.46 271.084V283H219.58V271.588C219.58 269.884 219.208 268.624 218.464 267.808C217.72 266.968 216.628 266.548 215.188 266.548C214.612 266.548 214.048 266.62 213.496 266.764C212.944 266.908 212.452 267.124 212.02 267.412C211.588 267.7 211.24 268.072 210.976 268.528C210.712 268.984 210.58 269.512 210.58 270.112V283H207.7Z" fill="white"/>
<rect x="2" y="242" width="18" height="58" fill="white"/>
<rect x="1.5" y="-0.5" width="19" height="242" fill="#FFDC51" stroke="#326C9B"/>
<rect x="216" y="-28.8508" width="76.5785" height="158.444" transform="rotate(-45 216 -28.8508)" fill="#FFDC51"/>
</g>
<rect x="3" y="1" width="298" height="298" stroke="#326C9B" stroke-width="2"/>
</g>
<g clip-path="url(#clip1_185_196)">
<path d="M159.852 55.0013C153.522 55.0307 147.476 55.5706 142.156 56.5119C126.485 59.2805 123.64 65.0753 123.64 75.762V89.8759H160.672V94.5805H123.64H109.742C98.9789 94.5805 89.5548 101.05 86.607 113.356C83.2068 127.462 83.056 136.264 86.607 150.993C89.2394 161.956 95.526 169.768 106.289 169.768H119.021V152.849C119.021 140.626 129.597 129.844 142.156 129.844H179.146C189.442 129.844 197.662 121.366 197.662 111.025V75.762C197.662 65.726 189.195 58.1869 179.146 56.5119C172.784 55.4529 166.183 54.9719 159.852 55.0013ZM139.825 66.3528C143.651 66.3528 146.774 69.5276 146.774 73.4313C146.774 77.3212 143.651 80.4667 139.825 80.4667C135.986 80.4667 132.876 77.3211 132.876 73.4313C132.876 69.5276 135.986 66.3528 139.825 66.3528Z" fill="url(#paint0_linear_185_196)"/>
<path d="M202.28 94.5806V111.025C202.28 123.774 191.471 134.505 179.146 134.505H142.156C132.024 134.505 123.64 143.177 123.64 153.324V188.587C123.64 198.623 132.367 204.526 142.156 207.405C153.879 210.852 165.12 211.475 179.146 207.405C188.469 204.706 197.662 199.273 197.662 188.587V174.473H160.672V169.768H197.662H216.178C226.941 169.768 230.952 162.261 234.695 150.993C238.561 139.393 238.397 128.237 234.695 113.356C232.035 102.642 226.955 94.5806 216.178 94.5806H202.28ZM181.476 183.882C185.315 183.882 188.425 187.028 188.425 190.917C188.425 194.821 185.315 197.996 181.476 197.996C177.651 197.996 174.527 194.821 174.527 190.917C174.527 187.028 177.651 183.882 181.476 183.882Z" fill="url(#paint1_linear_185_196)"/>
<path opacity="0.44382" d="M161.093 241C188.501 241 210.72 236.692 210.72 231.377C210.72 226.062 188.501 221.754 161.093 221.754C133.684 221.754 111.466 226.062 111.466 231.377C111.466 236.692 133.684 241 161.093 241Z" fill="url(#paint2_radial_185_196)"/>
</g>
<defs>
<filter id="filter0_d_185_196" x="0" y="0" width="312" height="312" filterUnits="userSpaceOnUse" color-interpolation-filters="sRGB">
<feFlood flood-opacity="0" result="BackgroundImageFix"/>
<feColorMatrix in="SourceAlpha" type="matrix" values="0 0 0 0 0 0 0 0 0 0 0 0 0 0 0 0 0 0 127 0" result="hardAlpha"/>
<feOffset dx="4" dy="6"/>
<feGaussianBlur stdDeviation="3"/>
<feComposite in2="hardAlpha" operator="out"/>
<feColorMatrix type="matrix" values="0 0 0 0 0 0 0 0 0 0 0 0 0 0 0 0 0 0 0.25 0"/>
<feBlend mode="normal" in2="BackgroundImageFix" result="effect1_dropShadow_185_196"/>
<feBlend mode="normal" in="SourceGraphic" in2="effect1_dropShadow_185_196" result="shape"/>
</filter>
<linearGradient id="paint0_linear_185_196" x1="84" y1="55" x2="169.393" y2="127.767" gradientUnits="userSpaceOnUse">
<stop stop-color="#5A9FD4"/>
<stop offset="1" stop-color="#306998"/>
</linearGradient>
<linearGradient id="paint1_linear_185_196" x1="180.586" y1="189.731" x2="149.951" y2="146.801" gradientUnits="userSpaceOnUse">
<stop stop-color="#FFD43B"/>
<stop offset="1" stop-color="#FFE873"/>
</linearGradient>
<radialGradient id="paint2_radial_185_196" cx="0" cy="0" r="1" gradientUnits="userSpaceOnUse" gradientTransform="translate(161.093 231.377) rotate(-90) scale(9.62308 42.2975)">
<stop stop-color="#B8B8B8" stop-opacity="0.498039"/>
<stop offset="1" stop-color="#7F7F7F" stop-opacity="0"/>
</radialGradient>
<clipPath id="clip0_185_196">
<rect x="2" width="300" height="300" fill="white"/>
</clipPath>
<clipPath id="clip1_185_196">
<rect width="153.533" height="186" fill="white" transform="translate(84 55)"/>
</clipPath>
</defs>
</svg>
