<svg width="312" height="312" viewBox="0 0 312 312" fill="none" xmlns="http://www.w3.org/2000/svg">
<g filter="url(#filter0_d_185_245)">
<g clip-path="url(#clip0_185_245)">
<rect x="2" width="300" height="300" fill="white"/>
<mask id="path-3-outside-1_185_245" maskUnits="userSpaceOnUse" x="20" y="241" width="282" height="59" fill="black">
<rect fill="white" x="20" y="241" width="282" height="59"/>
<path d="M20 242H302V300H20V242Z"/>
</mask>
<path d="M20 242H302V300H20V242Z" fill="#38BDF8"/>
<path d="M20 242V243H302V242V241H20V242Z" fill="#38BDF8" mask="url(#path-3-outside-1_185_245)"/>
<path d="M43.7964 260.5V283H40.7724V260.5H32.3844V257.872H52.1844V260.5H43.7964ZM70.8903 283C69.7623 283 68.9583 282.712 68.4783 282.136C67.9983 281.56 67.6983 280.84 67.5783 279.976H67.3983C66.9903 281.056 66.3303 281.908 65.4183 282.532C64.5303 283.132 63.3303 283.432 61.8183 283.432C59.8743 283.432 58.3263 282.928 57.1743 281.92C56.0223 280.912 55.4463 279.532 55.4463 277.78C55.4463 276.052 56.0703 274.72 57.3183 273.784C58.5903 272.848 60.6303 272.38 63.4383 272.38H67.3983V270.544C67.3983 269.176 67.0143 268.156 66.2463 267.484C65.4783 266.788 64.3863 266.44 62.9703 266.44C61.7223 266.44 60.7023 266.692 59.9103 267.196C59.1183 267.676 58.4823 268.336 58.0023 269.176L56.0583 267.736C56.2983 267.256 56.6223 266.788 57.0303 266.332C57.4383 265.876 57.9423 265.48 58.5423 265.144C59.1423 264.784 59.8263 264.508 60.5943 264.316C61.3623 264.1 62.2143 263.992 63.1503 263.992C65.3343 263.992 67.0623 264.544 68.3343 265.648C69.6303 266.752 70.2783 268.288 70.2783 270.256V280.48H72.8703V283H70.8903ZM62.3223 281.02C63.0663 281.02 63.7383 280.936 64.3383 280.768C64.9623 280.576 65.5023 280.336 65.9583 280.048C66.4143 279.736 66.7623 279.376 67.0023 278.968C67.2663 278.536 67.3983 278.08 67.3983 277.6V274.54H63.4383C61.7103 274.54 60.4503 274.78 59.6583 275.26C58.8663 275.74 58.4703 276.436 58.4703 277.348V278.104C58.4703 279.064 58.8063 279.796 59.4783 280.3C60.1743 280.78 61.1223 281.02 62.3223 281.02ZM86.6083 260.32C85.7683 260.32 85.1803 260.152 84.8443 259.816C84.5083 259.456 84.3403 259.012 84.3403 258.484V257.908C84.3403 257.38 84.5083 256.948 84.8443 256.612C85.1803 256.252 85.7683 256.072 86.6083 256.072C87.4483 256.072 88.0363 256.252 88.3723 256.612C88.7083 256.948 88.8763 257.38 88.8763 257.908V258.484C88.8763 259.012 88.7083 259.456 88.3723 259.816C88.0363 260.152 87.4483 260.32 86.6083 260.32ZM78.4723 280.552H85.1683V266.872H78.4723V264.424H88.0483V280.552H94.3123V283H78.4723V280.552ZM99.1222 280.552H105.602V258.808H99.1222V256.36H108.482V280.552H114.962V283H99.1222V280.552ZM118.908 264.424H121.464L123.588 280.48H123.912L127.08 264.424H130.248L133.416 280.48H133.74L135.864 264.424H138.348L135.504 283H131.76L128.808 267.448H128.52L125.496 283H121.752L118.908 264.424ZM151.366 260.32C150.526 260.32 149.938 260.152 149.602 259.816C149.266 259.456 149.098 259.012 149.098 258.484V257.908C149.098 257.38 149.266 256.948 149.602 256.612C149.938 256.252 150.526 256.072 151.366 256.072C152.206 256.072 152.794 256.252 153.13 256.612C153.466 256.948 153.634 257.38 153.634 257.908V258.484C153.634 259.012 153.466 259.456 153.13 259.816C152.794 260.152 152.206 260.32 151.366 260.32ZM143.23 280.552H149.926V266.872H143.23V264.424H152.806V280.552H159.07V283H143.23V280.552ZM164.528 283V264.424H167.408V267.448H167.552C167.744 266.992 167.984 266.56 168.272 266.152C168.56 265.72 168.908 265.348 169.316 265.036C169.748 264.724 170.252 264.472 170.828 264.28C171.404 264.088 172.076 263.992 172.844 263.992C174.788 263.992 176.348 264.616 177.524 265.864C178.7 267.088 179.288 268.828 179.288 271.084V283H176.408V271.588C176.408 269.884 176.036 268.624 175.292 267.808C174.548 266.968 173.456 266.548 172.016 266.548C171.44 266.548 170.876 266.62 170.324 266.764C169.772 266.908 169.28 267.124 168.848 267.412C168.416 267.7 168.068 268.072 167.804 268.528C167.54 268.984 167.408 269.512 167.408 270.112V283H164.528ZM197.886 279.976H197.742C196.542 282.28 194.634 283.432 192.018 283.432C189.738 283.432 187.95 282.58 186.654 280.876C185.382 279.172 184.746 276.784 184.746 273.712C184.746 270.64 185.382 268.252 186.654 266.548C187.95 264.844 189.738 263.992 192.018 263.992C194.634 263.992 196.542 265.144 197.742 267.448H197.886V256.36H200.766V283H197.886V279.976ZM193.134 280.876C193.782 280.876 194.394 280.792 194.97 280.624C195.546 280.456 196.05 280.216 196.482 279.904C196.914 279.568 197.25 279.172 197.49 278.716C197.754 278.236 197.886 277.684 197.886 277.06V270.364C197.886 269.74 197.754 269.2 197.49 268.744C197.25 268.264 196.914 267.868 196.482 267.556C196.05 267.22 195.546 266.968 194.97 266.8C194.394 266.632 193.782 266.548 193.134 266.548C191.454 266.548 190.146 267.064 189.21 268.096C188.298 269.104 187.842 270.448 187.842 272.128V275.296C187.842 276.976 188.298 278.332 189.21 279.364C190.146 280.372 191.454 280.876 193.134 280.876ZM237.386 283.432C234.314 283.432 232.022 282.316 230.51 280.084C229.022 277.852 228.278 274.636 228.278 270.436C228.278 266.236 229.022 263.02 230.51 260.788C232.022 258.556 234.314 257.44 237.386 257.44C238.538 257.44 239.534 257.596 240.374 257.908C241.214 258.22 241.934 258.64 242.534 259.168C243.134 259.696 243.638 260.296 244.046 260.968C244.454 261.616 244.814 262.276 245.126 262.948L242.534 264.136C242.318 263.584 242.066 263.068 241.778 262.588C241.49 262.084 241.142 261.652 240.734 261.292C240.35 260.908 239.882 260.608 239.33 260.392C238.802 260.176 238.154 260.068 237.386 260.068C235.394 260.068 233.906 260.824 232.922 262.336C231.962 263.848 231.482 265.864 231.482 268.384V272.488C231.482 275.008 231.962 277.024 232.922 278.536C233.906 280.048 235.394 280.804 237.386 280.804C238.154 280.804 238.802 280.696 239.33 280.48C239.882 280.264 240.35 279.976 240.734 279.616C241.142 279.232 241.49 278.8 241.778 278.32C242.066 277.816 242.318 277.288 242.534 276.736L245.126 277.924C244.814 278.62 244.454 279.292 244.046 279.94C243.638 280.588 243.134 281.176 242.534 281.704C241.934 282.232 241.214 282.652 240.374 282.964C239.534 283.276 238.538 283.432 237.386 283.432ZM258.072 283.432C255.816 283.432 253.968 283.024 252.528 282.208C251.088 281.368 249.9 280.3 248.964 279.004L251.16 277.204C252.144 278.428 253.176 279.34 254.256 279.94C255.36 280.54 256.668 280.84 258.18 280.84C260.004 280.84 261.396 280.42 262.356 279.58C263.316 278.74 263.796 277.564 263.796 276.052C263.796 274.828 263.448 273.88 262.752 273.208C262.056 272.512 260.844 272.02 259.116 271.732L256.308 271.264C255.084 271.048 254.052 270.724 253.212 270.292C252.396 269.86 251.736 269.344 251.232 268.744C250.728 268.12 250.368 267.448 250.152 266.728C249.936 265.984 249.828 265.216 249.828 264.424C249.828 262.12 250.584 260.38 252.096 259.204C253.608 258.028 255.648 257.44 258.216 257.44C260.232 257.44 261.924 257.776 263.292 258.448C264.684 259.12 265.8 260.068 266.64 261.292L264.516 263.128C263.82 262.216 262.98 261.472 261.996 260.896C261.012 260.32 259.74 260.032 258.18 260.032C256.476 260.032 255.168 260.392 254.256 261.112C253.344 261.832 252.888 262.912 252.888 264.352C252.888 265.48 253.224 266.404 253.896 267.124C254.592 267.82 255.828 268.324 257.604 268.636L260.304 269.104C261.528 269.32 262.56 269.644 263.4 270.076C264.24 270.508 264.912 271.024 265.416 271.624C265.944 272.224 266.316 272.896 266.532 273.64C266.748 274.384 266.856 275.164 266.856 275.98C266.856 278.308 266.088 280.132 264.552 281.452C263.04 282.772 260.88 283.432 258.072 283.432ZM279.658 283.432C277.402 283.432 275.554 283.024 274.114 282.208C272.674 281.368 271.486 280.3 270.55 279.004L272.746 277.204C273.73 278.428 274.762 279.34 275.842 279.94C276.946 280.54 278.254 280.84 279.766 280.84C281.59 280.84 282.982 280.42 283.942 279.58C284.902 278.74 285.382 277.564 285.382 276.052C285.382 274.828 285.034 273.88 284.338 273.208C283.642 272.512 282.43 272.02 280.702 271.732L277.894 271.264C276.67 271.048 275.638 270.724 274.798 270.292C273.982 269.86 273.322 269.344 272.818 268.744C272.314 268.12 271.954 267.448 271.738 266.728C271.522 265.984 271.414 265.216 271.414 264.424C271.414 262.12 272.17 260.38 273.682 259.204C275.194 258.028 277.234 257.44 279.802 257.44C281.818 257.44 283.51 257.776 284.878 258.448C286.27 259.12 287.386 260.068 288.226 261.292L286.102 263.128C285.406 262.216 284.566 261.472 283.582 260.896C282.598 260.32 281.326 260.032 279.766 260.032C278.062 260.032 276.754 260.392 275.842 261.112C274.93 261.832 274.474 262.912 274.474 264.352C274.474 265.48 274.81 266.404 275.482 267.124C276.178 267.82 277.414 268.324 279.19 268.636L281.89 269.104C283.114 269.32 284.146 269.644 284.986 270.076C285.826 270.508 286.498 271.024 287.002 271.624C287.53 272.224 287.902 272.896 288.118 273.64C288.334 274.384 288.442 275.164 288.442 275.98C288.442 278.308 287.674 280.132 286.138 281.452C284.626 282.772 282.466 283.432 279.658 283.432Z" fill="white"/>
<rect x="2" y="242" width="18" height="58" fill="white"/>
<rect x="1.5" y="-0.5" width="19" height="242" fill="#CAEFFF" stroke="#38BDF8"/>
<rect x="216" y="-28.8508" width="76.5785" height="158.444" transform="rotate(-45 216 -28.8508)" fill="#CAEFFF"/>
</g>
<rect x="3" y="1" width="298" height="298" stroke="#38BDF8" stroke-width="2"/>
</g>
<path fill-rule="evenodd" clip-rule="evenodd" d="M160.5 56C131.567 56 113.483 70.4444 106.25 99.3333C117.1 84.8889 129.758 79.4722 144.225 83.0833C152.479 85.1417 158.378 91.1241 164.908 97.7404C175.545 108.522 187.858 121 214.75 121C243.683 121 261.767 106.556 269 77.6667C258.15 92.1111 245.492 97.5278 231.025 93.9167C222.771 91.8583 216.872 85.8759 210.342 79.2596C199.705 68.4784 187.392 56 160.5 56ZM106.25 121C77.3167 121 59.2333 135.444 52 164.333C62.85 149.889 75.5083 144.472 89.975 148.083C98.229 150.146 104.128 156.124 110.658 162.74C121.295 173.522 133.608 186 160.5 186C189.433 186 207.517 171.556 214.75 142.667C203.9 157.111 191.242 162.528 176.775 158.917C168.521 156.858 162.622 150.876 156.092 144.26C145.455 133.478 133.142 121 106.25 121Z" fill="#38BDF8"/>
<defs>
<filter id="filter0_d_185_245" x="0" y="0" width="312" height="312" filterUnits="userSpaceOnUse" color-interpolation-filters="sRGB">
<feFlood flood-opacity="0" result="BackgroundImageFix"/>
<feColorMatrix in="SourceAlpha" type="matrix" values="0 0 0 0 0 0 0 0 0 0 0 0 0 0 0 0 0 0 127 0" result="hardAlpha"/>
<feOffset dx="4" dy="6"/>
<feGaussianBlur stdDeviation="3"/>
<feComposite in2="hardAlpha" operator="out"/>
<feColorMatrix type="matrix" values="0 0 0 0 0 0 0 0 0 0 0 0 0 0 0 0 0 0 0.25 0"/>
<feBlend mode="normal" in2="BackgroundImageFix" result="effect1_dropShadow_185_245"/>
<feBlend mode="normal" in="SourceGraphic" in2="effect1_dropShadow_185_245" result="shape"/>
</filter>
<clipPath id="clip0_185_245">
<rect x="2" width="300" height="300" fill="white"/>
</clipPath>
</defs>
</svg>
